<svg width="40" height="40" viewBox="0 0 40 40" fill="none" xmlns="http://www.w3.org/2000/svg">
<rect width="40" height="40" rx="20" fill="white"/>
<path d="M19.5361 19.136C21.1148 19.136 22.2828 19.4453 23.0401 20.064C23.7975 20.672 24.1761 21.504 24.1761 22.56C24.1761 23.232 24.0108 23.84 23.6801 24.384C23.3495 24.928 22.8535 25.36 22.1921 25.68C21.5308 26 20.7148 26.16 19.7441 26.16C18.9441 26.16 18.1708 26.048 17.4241 25.824C16.6775 25.5893 16.0481 25.2693 15.5361 24.864L16.4161 23.248C16.8321 23.5893 17.3281 23.8613 17.9041 24.064C18.4908 24.256 19.0935 24.352 19.7121 24.352C20.4481 24.352 21.0241 24.2027 21.4401 23.904C21.8668 23.5947 22.0801 23.1733 22.0801 22.64C22.0801 22.064 21.8508 21.632 21.3921 21.344C20.9441 21.0453 20.1708 20.896 19.0721 20.896H16.3681L16.9441 14.8H23.5201V16.544H18.7041L18.4641 19.136H19.5361Z" fill="#5D74E4"/>
</svg>
