<svg width="44" height="54" viewBox="0 0 44 54" fill="none" xmlns="http://www.w3.org/2000/svg">
<path d="M4.86406 53.0222H43.3361C43.3361 51.3982 35.7761 50.0542 26.0881 49.8862V46.4702C26.1441 46.4702 26.2001 46.4702 26.2561 46.4702C35.4401 45.3502 42.4401 37.5102 42.4401 28.1582C42.4401 22.9502 40.2001 17.9662 36.3361 14.4942C35.8881 14.1022 35.3841 13.7102 34.9361 13.3182L37.3441 8.9502C38.2401 7.3262 37.6241 5.3102 36.0001 4.4142L30.5121 1.3902C28.8881 0.494195 26.8721 1.1102 25.9761 2.7342L15.2241 22.5022C14.3281 24.1262 14.9441 26.1422 16.5681 27.0382L22.0561 30.0622C22.5601 30.2862 23.1201 30.3982 23.6801 30.3982C24.0161 30.3982 24.2961 30.3422 24.6321 30.2862C25.4721 30.0622 26.2001 29.4462 26.5921 28.6622L33.4241 16.1182C33.7041 16.3422 33.9841 16.5662 34.2641 16.8462C37.4561 19.7582 39.3041 23.9022 39.3041 28.2142C39.3041 35.9422 33.4801 42.4942 25.8081 43.3902C24.4641 43.5582 23.1201 43.5022 21.7761 43.3342C17.5201 42.7182 13.8241 40.3662 11.4721 36.8942H26.1441C26.9841 36.8942 27.7121 36.2222 27.7121 35.3262C27.7121 34.4302 27.0401 33.7582 26.2001 33.7582H2.23206C1.39206 33.7582 0.664062 34.4302 0.664062 35.3262C0.664062 36.2222 1.33606 36.8942 2.23206 36.8942H7.88806C10.6321 41.9902 15.5601 45.5182 21.3841 46.4142C21.4401 46.4142 21.5521 46.4142 21.6081 46.4142V49.9422C12.1441 50.0542 4.86406 51.3982 4.86406 53.0222ZM23.9041 27.2062C23.8481 27.2622 23.7921 27.3182 23.7361 27.3182C23.6801 27.3182 23.6241 27.3182 23.5681 27.3182L18.0801 24.2942C17.9681 24.2382 17.9121 24.0702 17.9681 23.9582L28.6641 4.3022C28.7201 4.1902 28.8881 4.1342 29.0001 4.1902L34.4881 7.2142C34.6001 7.2702 34.6561 7.4382 34.6001 7.5502L23.9041 27.2062Z" fill="#1B63F0"/>
</svg>
