<svg width="746" height="580" viewBox="0 0 746 580" fill="none" xmlns="http://www.w3.org/2000/svg">
<path opacity="0.05" fill-rule="evenodd" clip-rule="evenodd" d="M323.051 29.7835L301.027 17.0675C299.908 16.4215 298.669 16.2557 297.47 16.4275C297.02 15.3037 296.257 14.3135 295.138 13.6675L273.113 0.951504C271.582 0.0675036 269.572 0.556188 268.654 2.14621L249.58 35.1833C248.696 36.7145 249.185 38.7241 250.775 39.6421L274.036 53.0721L273.968 53.1898C273.458 54.0732 273.723 55.2468 274.665 55.7908C275.608 56.3348 276.722 56.0361 277.266 55.0938L277.334 54.9761L277.452 55.0441L300.831 68.5421C302.362 69.4261 304.372 68.9374 305.29 67.3474L324.398 34.2513C325.164 32.6522 324.642 30.7015 323.051 29.7835ZM271.655 4.42844L293.268 16.9064C293.974 17.3144 294.282 18.2773 293.84 19.0429L276.16 49.6656C276.146 49.69 276.122 49.7085 276.094 49.7303C276.054 49.761 276.005 49.7981 275.965 49.8671L253.057 36.6411L271.655 4.42844ZM302.205 64.9382L279.297 51.7122L297.113 20.854C297.521 20.1473 298.484 19.8396 299.25 20.2816L320.862 32.7596L302.264 64.9722L302.205 64.9382ZM111.553 24.8254L106.817 16.6224L106.951 16.471C107.267 15.9933 107.486 15.3493 107.364 14.7545C107.153 13.6202 106.11 12.966 105.055 13.058L76.34 16.1866L76.1418 16.2271C75.4915 16.3809 74.8818 16.7329 74.4236 17.2191L56.8025 40.8426C56.2974 41.5037 56.238 42.4248 56.654 43.1454C57.07 43.8659 57.8974 44.275 58.7225 44.1681L68.3787 43.1011L74.9707 54.5188C78.1067 59.9505 85.0133 61.8011 90.445 58.6651L103.581 51.0811C109.013 47.9451 110.863 41.0385 107.727 35.6068L101.263 24.4108L101.634 23.9011L104.601 19.8235L108.537 26.6408L107.693 29.7882C107.647 29.963 107.743 30.1293 107.917 30.1761L113.163 31.5817C113.338 31.6285 113.504 31.5325 113.551 31.3577L114.956 26.1121C115.003 25.9373 114.907 25.771 114.732 25.7242L111.553 24.8254ZM104.734 37.3348C106.878 41.0483 105.59 45.8567 101.876 48.0007L88.685 55.6167C84.9715 57.7607 80.1631 56.4723 78.0191 52.7588L72.1951 42.6713L87.8893 40.9265L88.0876 40.8859C88.4287 40.8367 88.7058 40.6767 89.0384 40.4847C89.3155 40.3247 89.6161 40.0773 89.8612 39.8619L99.0062 27.4136L104.734 37.3348ZM98.8147 21.8338L87.3104 37.4918L66.2284 39.7607L61.5315 40.3294L76.8955 19.7087L102.278 16.9522L98.8147 21.8338ZM296.123 136.385L321.754 121.588C322.482 121.167 322.777 120.22 322.328 119.444C321.88 118.667 320.941 118.497 320.212 118.918L294.582 133.716C291.621 135.425 290.455 139.011 291.768 142.071C291.776 142.196 291.86 142.342 291.944 142.488L312.908 178.798C314.253 181.128 317.239 181.928 319.569 180.583L345.831 165.42C346.802 164.86 347.151 163.558 346.59 162.587L327.28 129.141C326.72 128.17 325.418 127.822 324.447 128.382L299.739 142.647C298.04 143.628 295.742 143.013 294.762 141.314C293.781 139.615 294.424 137.366 296.123 136.385ZM301.28 145.317L325.115 131.556L343.416 163.255L318.028 177.913C317.154 178.417 316.082 178.13 315.578 177.256L297.641 146.189C298.851 146.267 300.115 145.99 301.28 145.317ZM333.161 161.862L320.831 168.98C320.103 169.401 319.808 170.347 320.257 171.124C320.705 171.901 321.624 172.147 322.401 171.699L334.682 164.608C335.41 164.188 335.705 163.241 335.257 162.464C334.808 161.687 333.889 161.441 333.161 161.862ZM324.202 143.54L309.396 152.088C308.862 152.396 308.173 152.211 307.865 151.677L306.183 148.765C305.875 148.231 306.059 147.542 306.593 147.233L321.399 138.685C321.933 138.377 322.622 138.562 322.93 139.096L324.612 142.008C324.92 142.542 324.736 143.231 324.202 143.54ZM742.393 214.37L735.701 211.799L745.318 186.767C746.81 182.884 744.883 178.441 741 176.95L740.94 176.927L740.164 176.628L734.608 174.494L711.308 165.542C705.513 163.316 698.92 166.199 696.671 172.054L695.156 175.997C694.513 177.67 695.36 179.572 697.032 180.215L702.887 182.464L692.398 209.766C691.181 212.933 692.74 216.548 695.967 217.788L703.076 220.519L701.607 224.343C701.332 225.059 701.474 225.937 702.017 226.488C702.247 226.782 702.522 226.957 702.881 227.094C703.239 227.232 703.703 227.273 704.094 227.149L709.355 225.948L712.458 230.362C712.895 231.01 713.671 231.309 714.443 231.262C715.238 231.156 715.909 230.66 716.184 229.943L717.676 226.06C717.773 226.165 717.952 226.234 718.071 226.28L731.872 231.582C732.111 231.674 732.29 231.743 732.492 231.752L732.552 231.775L732.612 231.798C732.625 231.803 732.639 231.807 732.654 231.812L732.67 231.816C732.679 231.818 732.687 231.82 732.696 231.822L732.711 231.826L732.732 231.83L732.754 231.835L732.783 231.84L732.813 231.846C732.908 231.864 733.014 231.884 733.113 231.922L733.232 231.968C733.292 231.991 733.352 232.013 733.375 231.954C733.389 231.959 733.403 231.963 733.416 231.967C733.436 231.972 733.456 231.975 733.475 231.977C733.495 231.979 733.515 231.98 733.535 231.981C733.586 231.984 733.637 231.986 733.696 232.009C733.756 232.032 733.898 232.018 733.958 232.041C734.018 232.064 734.078 232.087 734.101 232.027C734.303 232.036 734.505 232.045 734.647 232.031C734.707 232.054 734.79 232.018 734.79 232.018C734.815 232.027 734.833 232.022 734.85 232.015C734.875 232.005 734.897 231.99 734.932 232.004C735.007 232.007 735.077 231.999 735.145 231.988C735.169 231.984 735.193 231.98 735.217 231.976C735.309 231.96 735.401 231.944 735.502 231.948C735.644 231.935 735.87 231.884 736.035 231.81C736.035 231.81 736.095 231.833 736.118 231.774L736.2 231.737L736.283 231.7C736.412 231.642 736.528 231.621 736.651 231.58C736.669 231.574 736.688 231.567 736.708 231.559C736.724 231.553 736.74 231.546 736.756 231.539C736.817 231.512 736.88 231.487 736.946 231.461L736.946 231.46L736.947 231.46L736.947 231.46C737.149 231.379 737.364 231.294 737.524 231.148C737.689 231.074 737.96 230.904 738.171 230.711C738.194 230.652 738.254 230.675 738.277 230.615C738.3 230.555 738.36 230.578 738.383 230.518C738.384 230.515 738.385 230.512 738.387 230.509C738.388 230.506 738.39 230.503 738.392 230.501C738.398 230.492 738.405 230.486 738.413 230.481C738.42 230.477 738.428 230.473 738.435 230.47C738.456 230.461 738.477 230.452 738.488 230.422C738.541 230.373 738.588 230.34 738.635 230.307C738.682 230.273 738.729 230.24 738.782 230.192L739.099 229.902C739.102 229.895 739.105 229.889 739.109 229.882C739.115 229.873 739.122 229.864 739.13 229.856C739.14 229.845 739.152 229.835 739.163 229.824L739.175 229.814L739.185 229.804C739.189 229.8 739.194 229.796 739.198 229.791C739.201 229.787 739.205 229.783 739.208 229.779L739.214 229.772C739.219 229.764 739.224 229.755 739.228 229.746C739.485 229.433 739.742 229.121 739.94 228.785L739.94 228.785C740.16 228.39 740.381 227.995 740.564 227.517L744.03 218.496C744.911 216.915 744.065 215.013 742.393 214.37ZM699.98 173.257C701.518 169.254 706.066 167.23 710.069 168.768L733.07 177.605C731.774 178.479 730.722 179.788 730.126 181.342L727.555 188.033L698.58 176.901L699.98 173.257ZM713.357 215.35C709.833 213.996 708.067 210.027 709.421 206.502C710.775 202.977 714.722 201.271 718.246 202.625C721.771 203.98 723.537 207.949 722.183 211.474C720.829 214.999 716.882 216.705 713.357 215.35ZM710.856 221.862L705.843 222.953L708.414 216.262C709.402 217.259 710.638 218.145 712.072 218.696C713.506 219.247 714.935 219.453 716.419 219.338L713.826 226.089L710.856 221.862ZM718.879 222.751L720.646 218.151C722.782 217.052 724.528 215.186 725.469 212.736C727.512 207.419 724.886 201.405 719.509 199.339C714.192 197.297 708.178 199.923 706.112 205.299C705.194 207.689 705.241 210.244 706.069 212.55L704.325 217.091L697.215 214.359C695.841 213.831 695.142 212.26 695.67 210.886L706.159 183.584L726.472 191.388C728.145 192.03 730.047 191.184 730.689 189.511L733.329 182.641C734.178 180.43 736.645 179.184 738.901 179.914L739.678 180.212C741.769 181.016 742.836 183.414 742.033 185.505L727.825 222.486C727.389 223.621 727.252 224.871 727.422 226.033L719.297 222.912C719.141 222.783 719.021 222.737 718.879 222.751ZM737.214 226.778C737.15 226.857 737.08 226.95 737.01 227.043C736.94 227.136 736.87 227.229 736.805 227.307C736.783 227.327 736.762 227.345 736.742 227.361C736.667 227.422 736.607 227.465 736.571 227.56L736.383 227.693C736.341 227.712 736.294 227.745 736.247 227.778C736.2 227.812 736.153 227.845 736.112 227.863L736.029 227.9C736.004 227.911 735.977 227.928 735.947 227.946C735.879 227.988 735.798 228.038 735.698 228.047C735.644 228.071 735.589 228.096 735.517 228.113C735.48 228.123 735.439 228.13 735.39 228.135L735.308 228.171C735.083 228.222 734.857 228.273 734.655 228.264C734.611 228.283 734.573 228.286 734.539 228.28C734.509 228.276 734.481 228.265 734.453 228.254C734.393 228.231 734.311 228.268 734.251 228.245L734.108 228.259C734.076 228.247 734.021 228.245 733.967 228.243C733.92 228.24 733.874 228.238 733.846 228.227L733.787 228.204C733.757 228.193 733.706 228.19 733.656 228.188C733.638 228.187 733.62 228.186 733.602 228.185C733.59 228.184 733.577 228.183 733.566 228.182C733.55 228.179 733.536 228.176 733.525 228.172L733.405 228.126L733.107 228.011C731.314 227.323 730.431 225.338 731.12 223.546L734.379 215.062L740.772 217.518C740.772 217.518 737.343 226.622 737.214 226.778ZM434.321 179.317H442.421C443.571 179.317 444.471 180.167 444.471 181.317V181.967C444.471 187.667 440.121 196.317 434.171 197.167C433.421 201.917 430.071 205.767 425.671 207.317V218.217H434.121C435.121 218.217 435.921 219.017 435.921 220.017V222.567C435.921 223.567 435.121 224.367 434.121 224.367H409.221C408.221 224.367 407.421 223.567 407.421 222.567V220.067C407.421 219.067 408.221 218.267 409.221 218.267H417.221V207.367C412.821 205.817 409.471 201.967 408.721 197.217C402.771 196.367 398.421 187.717 398.421 182.017V181.367C398.421 180.167 399.271 179.317 400.421 179.317H408.521V179.167C408.521 177.817 409.621 176.767 410.921 176.767H431.921C433.271 176.767 434.321 177.867 434.321 179.167V179.317ZM401.121 182.067C401.171 186.317 404.371 192.917 408.221 194.267V182.067H401.121ZM420.171 218.217H422.671V208.017C422.271 208.067 421.821 208.067 421.421 208.067C421.021 208.067 420.571 208.067 420.171 208.017V218.217ZM421.421 205.317C427.021 205.317 431.571 200.767 431.571 195.167V179.517H411.271V195.167C411.271 200.767 415.821 205.317 421.421 205.317ZM434.621 182.067V194.267C438.471 192.917 441.671 186.317 441.721 182.067H434.621ZM233.169 256.643L233.319 266.114L235.66 268.445C235.79 268.571 235.793 268.763 235.667 268.893L231.888 272.793C231.762 272.923 231.57 272.926 231.44 272.8L227.54 269.022C227.41 268.896 227.407 268.704 227.533 268.574L229.8 266.234L229.676 258.363L225.101 260.483L224.529 260.748L224.733 273.675C224.833 279.946 219.857 285.081 213.586 285.18L198.42 285.42C192.149 285.52 187.013 280.544 186.914 274.273L186.706 261.091L177.749 257.328C176.976 257.02 176.452 256.26 176.439 255.428C176.426 254.596 176.925 253.82 177.688 253.488L204.573 241.413C205.209 241.211 205.913 241.2 206.556 241.382L206.749 241.443L233.362 252.671C234.329 253.104 234.922 254.183 234.556 255.277C234.373 255.856 233.868 256.312 233.36 256.576L233.169 256.643ZM213.594 281.66C217.882 281.592 221.346 278.017 221.278 273.729L221.097 262.275L207.053 268.706C206.734 268.775 206.351 268.845 206.031 268.85C205.647 268.856 205.327 268.861 205.005 268.738L204.812 268.677L190.249 262.571L190.434 274.217C190.502 278.505 194.077 281.969 198.364 281.901L213.594 281.66ZM205.976 265.394L223.642 257.306L229.042 254.724L205.522 244.791L182.07 255.339L186.451 257.126L205.976 265.394ZM612.675 144.067L605.504 145.201L598.762 102.567C598.525 101.068 597.166 100.08 595.667 100.317L587.713 101.575C586.736 101.73 586.012 102.646 586.177 103.689C586.342 104.732 587.248 105.39 588.291 105.226L595.331 104.112L601.929 145.834L594.693 146.978C593.715 147.133 592.991 148.049 593.156 149.092C593.321 150.135 594.227 150.794 595.27 150.629L613.328 147.773C614.306 147.618 615.03 146.702 614.865 145.659C614.7 144.616 613.718 143.902 612.675 144.067ZM596.884 88.8312C598.565 90.0528 598.937 92.4055 597.715 94.0861C596.493 95.7667 594.141 96.1388 592.46 94.9171C590.78 93.6955 590.407 91.3428 591.629 89.6622C592.851 87.9816 595.203 87.6096 596.884 88.8312ZM274.502 14.8661L284.101 20.4081C284.984 20.9181 285.342 22.0668 284.798 23.009C284.254 23.9512 283.08 24.2159 282.197 23.7059L272.598 18.1639C271.656 17.6199 271.357 16.5052 271.901 15.563C272.445 14.6208 273.618 14.3561 274.502 14.8661ZM299.191 33.439L308.79 38.981C309.674 39.491 310.847 39.2263 311.391 38.2841C311.935 37.3419 311.637 36.2272 310.694 35.6832L301.095 30.1412C300.212 29.6312 299.038 29.8959 298.494 30.8381C297.95 31.7803 298.249 32.895 299.191 33.439ZM304.744 45.9889L295.145 40.4469C294.203 39.9029 293.905 38.7882 294.449 37.846C294.993 36.9037 296.166 36.6391 297.049 37.1491L306.648 42.6911C307.591 43.2351 307.889 44.3497 307.345 45.292C306.801 46.2342 305.628 46.4989 304.744 45.9889ZM280.055 27.416L270.456 21.874C269.572 21.364 268.399 21.6286 267.855 22.5709C267.311 23.5131 267.61 24.6278 268.552 25.1718L278.151 30.7138C279.034 31.2238 280.208 30.9591 280.752 30.0169C281.296 29.0746 280.938 27.926 280.055 27.416ZM266.41 28.8818L276.009 34.4238C276.892 34.9338 277.25 36.0825 276.706 37.0248C276.162 37.967 274.988 38.2317 274.105 37.7217L264.506 32.1797C263.564 31.6357 263.265 30.521 263.809 29.5788C264.353 28.6365 265.526 28.3718 266.41 28.8818ZM291.099 47.4548L300.698 52.9968C301.581 53.5068 302.755 53.2421 303.299 52.2999C303.843 51.3576 303.544 50.2429 302.602 49.6989L293.003 44.1569C292.119 43.6469 290.946 43.9116 290.402 44.8539C289.858 45.7961 290.156 46.9108 291.099 47.4548ZM557.419 283.874L521.366 258.708C522.428 257.186 530.13 260.689 539.072 266.775L541.38 263.468L541.17 263.322C536.298 258.672 533.987 252.143 534.749 245.572L529.449 241.872C528.609 241.286 528.419 240.217 529.005 239.377C529.591 238.537 530.713 238.384 531.5 238.933L553.962 254.612C554.749 255.161 554.939 256.23 554.353 257.07C553.767 257.91 552.645 258.063 551.858 257.514L538.108 247.916C538.041 252.709 539.966 257.331 543.552 260.692C544.701 261.728 545.924 262.66 547.294 263.382C555.07 267.561 564.813 265.23 569.869 257.988C572.689 253.947 573.668 248.855 572.581 244.038C572.502 243.592 572.386 243.199 572.271 242.806L557.663 250.092C556.782 250.571 555.697 250.672 554.763 250.332L554.703 250.304L554.638 250.273L554.632 250.27C554.336 250.13 554.073 250.006 553.798 249.814C553.273 249.448 552.822 248.977 552.496 248.437L549.331 242.013C548.395 240.111 549.137 237.819 551.039 236.883L574.046 225.391C575.948 224.455 578.24 225.197 579.176 227.099L582.341 233.523C583.276 235.425 582.535 237.717 580.633 238.653L575.519 241.171C575.601 241.501 575.696 241.841 575.79 242.18C575.885 242.519 575.98 242.859 576.062 243.189C577.412 248.97 576.251 255.106 572.844 259.987C566.727 268.751 555.038 271.519 545.699 266.561L545.541 266.451L543.307 269.653C552.276 276.147 558.482 282.352 557.419 283.874ZM555.865 246.965C555.918 247.001 556.007 246.985 556.096 246.97L578.977 235.546C579.103 235.477 579.16 235.283 579.092 235.158L575.927 228.734C575.859 228.608 575.665 228.551 575.539 228.619L552.658 240.043C552.532 240.111 552.474 240.305 552.543 240.431L555.708 246.855L555.865 246.965ZM503.45 8.07391C503.203 7.51002 502.772 7.08756 502.182 6.85779L494.063 3.6985C493.501 3.39493 492.854 3.31277 492.318 3.48693C491.732 3.68362 491.207 4.15918 491 4.80088L487.559 13.5324L456.135 27.3505C454.956 27.869 454.417 29.1462 454.958 30.3765L471.909 68.926C472.428 70.1051 473.705 70.6446 474.935 70.1036L513.434 53.1747C514.613 52.6562 515.152 51.379 514.611 50.1487L500.41 17.8532L503.54 9.80849C503.719 9.24059 503.698 8.6378 503.45 8.07391ZM489.174 38.2102L487.993 37.7507C487.181 37.4347 486.309 37.8179 485.993 38.6298C485.678 39.4416 486.061 40.3131 486.873 40.629L487.168 40.7439L482.705 44.7861L482.127 38.7396L482.422 38.8545C482.791 38.9981 483.217 38.9941 483.576 38.8363C483.935 38.6785 484.226 38.367 484.37 37.9979C484.686 37.1861 484.302 36.3146 483.491 35.9987L482.31 35.5392L490.553 14.3573L497.394 16.977L489.174 38.2102ZM511.374 50.7159L474.464 66.946L458.144 29.8318L486.031 17.5691L478.908 35.8726L478.742 36.1904L479.873 47.8056C479.922 48.3346 480.125 48.7959 480.562 49.0933L480.583 49.1055C480.839 49.2503 481.413 49.5754 482.21 49.2249L482.415 49.1348L491.238 41.0954L498.705 21.9063L511.374 50.7159ZM498.514 14.0986L491.673 11.4789L493.511 6.75538L500.375 9.42642L498.514 14.0986ZM55.5926 182.331C56.0094 182.808 56.1951 183.382 56.1535 183.997C56.112 184.611 55.8507 185.155 55.4294 185.576L48.9275 191.254L46.5476 226.454C46.457 227.794 45.387 228.676 44.102 228.589L2.14178 225.752C0.800842 225.662 -0.080993 224.592 0.0058917 223.307L2.84665 181.291C2.93731 179.95 4.00723 179.068 5.2923 179.155L39.5421 181.471L46.6367 175.327C47.1177 174.854 47.8032 174.676 48.4141 174.774C48.969 174.867 49.5051 175.24 49.8622 175.77L55.5926 182.331ZM28.7041 203.133L29.5377 204.087L46.661 189.08L41.8124 183.588L24.6928 198.54L25.5264 199.494C26.0994 200.15 26.0352 201.1 25.379 201.673C25.0808 201.934 24.6783 202.075 24.2872 202.048C23.8961 202.022 23.5164 201.828 23.2559 201.53L23.0475 201.291L20.7587 206.917L26.5862 205.403L26.3778 205.164C25.8047 204.508 25.869 203.558 26.5251 202.985C27.1813 202.412 28.1311 202.477 28.7041 203.133ZM3.18763 222.736L43.4158 225.456L45.5388 194.056L30.0298 207.6L18.4867 210.637L18.2632 210.622C17.3946 210.563 17.0363 210.009 16.8768 209.762L16.8634 209.741C16.6143 209.275 16.6483 208.772 16.8499 208.281L21.2295 197.464L21.524 197.259L36.3172 184.34L5.92262 182.285L3.18763 222.736ZM44.1388 181.557L48.9873 187.048L52.8012 183.77L47.9564 178.223L44.1388 181.557ZM680.971 35.7578C680.688 34.4777 680.421 33.2688 680.181 32.0162C679.898 30.8202 679.619 29.5952 679.337 28.3612L679.336 28.3557C679.059 27.1418 678.779 25.9192 678.494 24.7074C678.379 24.0238 678.03 23.432 677.519 23.1018C677.008 22.7716 676.389 22.6158 675.764 22.7606L634.723 32.2666L623.529 41.7367C623.159 42.0465 622.89 42.4825 622.888 42.9689C622.929 43.4828 623.193 44.0195 623.704 44.3497L623.875 44.4598L638.252 48.0818L679.224 38.5918C680.474 38.3023 681.254 37.0379 680.971 35.7578ZM634.482 36.1348L634.765 37.4149C634.843 37.7704 635.061 38.0939 635.359 38.2865C635.657 38.4791 636.035 38.5409 636.383 38.4605C637.146 38.2835 637.603 37.5423 637.43 36.7601L636.959 34.6266L665.848 27.9354L668.11 38.176L639.306 44.9222L638.819 42.7177C638.646 41.9354 637.923 41.4676 637.159 41.6446C636.395 41.8215 635.938 42.5627 636.111 43.345L636.409 44.6961L627.176 42.3869L634.482 36.1348ZM670.904 37.6037L668.626 27.292L675.891 25.6467C676.064 26.429 676.241 27.2143 676.419 27.9996L676.421 28.0085C676.775 29.5762 677.129 31.1438 677.446 32.6871C677.681 33.7538 677.917 34.8206 678.126 35.9309L670.904 37.6037ZM323.051 323.784L301.027 311.068C299.908 310.422 298.669 310.256 297.47 310.428C297.02 309.304 296.257 308.314 295.138 307.668L273.113 294.952C271.582 294.068 269.572 294.556 268.654 296.146L249.58 329.183C248.696 330.714 249.185 332.724 250.775 333.642L274.036 347.072L273.968 347.19C273.458 348.073 273.723 349.247 274.665 349.791C275.608 350.335 276.722 350.036 277.266 349.094L277.334 348.976L277.452 349.044L300.831 362.542C302.362 363.426 304.372 362.937 305.29 361.347L324.398 328.251C325.164 326.652 324.642 324.702 323.051 323.784ZM271.655 298.428L293.268 310.906C293.974 311.314 294.282 312.277 293.84 313.043L276.16 343.666C276.146 343.69 276.122 343.709 276.094 343.73C276.054 343.761 276.005 343.798 275.965 343.867L253.057 330.641L271.655 298.428ZM302.205 358.938L279.297 345.712L297.113 314.854C297.521 314.147 298.484 313.84 299.25 314.282L320.862 326.76L302.264 358.972L302.205 358.938ZM111.553 318.825L106.817 310.622L106.951 310.471C107.267 309.993 107.486 309.349 107.364 308.754C107.153 307.62 106.11 306.966 105.055 307.058L76.34 310.187L76.1418 310.227C75.4915 310.381 74.8818 310.733 74.4236 311.219L56.8025 334.843C56.2974 335.504 56.238 336.425 56.654 337.145C57.07 337.866 57.8974 338.275 58.7225 338.168L68.3787 337.101L74.9707 348.519C78.1067 353.95 85.0133 355.801 90.445 352.665L103.581 345.081C109.013 341.945 110.863 335.038 107.727 329.607L101.263 318.411L101.634 317.901L104.601 313.823L108.537 320.641L107.693 323.788C107.647 323.963 107.743 324.129 107.917 324.176L113.163 325.582C113.338 325.629 113.504 325.533 113.551 325.358L114.956 320.112C115.003 319.937 114.907 319.771 114.732 319.724L111.553 318.825ZM104.734 331.335C106.878 335.048 105.59 339.857 101.876 342.001L88.685 349.617C84.9715 351.761 80.1631 350.472 78.0191 346.759L72.1951 336.671L87.8893 334.926L88.0876 334.886C88.4287 334.837 88.7058 334.677 89.0384 334.485C89.3155 334.325 89.6161 334.077 89.8612 333.862L99.0062 321.414L104.734 331.335ZM98.8147 315.834L87.3104 331.492L66.2284 333.761L61.5315 334.329L76.8955 313.709L102.278 310.952L98.8147 315.834ZM296.123 430.385L321.754 415.588C322.482 415.167 322.777 414.22 322.328 413.444C321.88 412.667 320.941 412.497 320.212 412.918L294.582 427.716C291.621 429.425 290.455 433.011 291.768 436.071C291.776 436.196 291.86 436.342 291.944 436.488L312.908 472.798C314.253 475.128 317.239 475.928 319.569 474.583L345.831 459.42C346.802 458.86 347.151 457.558 346.59 456.587L327.28 423.141C326.72 422.17 325.418 421.822 324.447 422.382L299.739 436.647C298.04 437.628 295.742 437.013 294.762 435.314C293.781 433.615 294.424 431.366 296.123 430.385ZM301.28 439.317L325.115 425.556L343.416 457.255L318.028 471.913C317.154 472.417 316.082 472.13 315.578 471.256L297.641 440.189C298.851 440.267 300.115 439.99 301.28 439.317ZM333.161 455.862L320.831 462.98C320.103 463.401 319.808 464.347 320.257 465.124C320.705 465.901 321.624 466.147 322.401 465.699L334.682 458.608C335.41 458.188 335.705 457.241 335.257 456.464C334.808 455.687 333.889 455.441 333.161 455.862ZM324.202 437.54L309.396 446.088C308.862 446.396 308.173 446.211 307.865 445.677L306.183 442.765C305.875 442.231 306.059 441.542 306.593 441.233L321.399 432.685C321.933 432.377 322.622 432.562 322.93 433.096L324.612 436.008C324.92 436.542 324.736 437.231 324.202 437.54ZM742.393 508.37L735.701 505.799L745.318 480.767C746.81 476.884 744.883 472.441 741 470.95L740.94 470.927L740.164 470.628L734.608 468.494L711.308 459.542C705.513 457.316 698.92 460.199 696.671 466.054L695.156 469.997C694.513 471.67 695.36 473.572 697.032 474.215L702.887 476.464L692.398 503.766C691.181 506.933 692.74 510.548 695.967 511.788L703.076 514.519L701.607 518.343C701.332 519.059 701.474 519.937 702.017 520.488C702.247 520.782 702.522 520.957 702.881 521.094C703.239 521.232 703.703 521.273 704.094 521.149L709.355 519.948L712.458 524.362C712.895 525.01 713.671 525.309 714.443 525.262C715.238 525.156 715.909 524.66 716.184 523.943L717.676 520.06C717.773 520.165 717.952 520.234 718.071 520.28L731.872 525.582C732.111 525.674 732.29 525.743 732.492 525.752L732.552 525.775L732.612 525.798C732.625 525.803 732.639 525.807 732.654 525.812L732.67 525.816C732.679 525.818 732.687 525.82 732.696 525.822L732.711 525.826L732.732 525.83L732.754 525.835L732.783 525.84L732.813 525.846L732.814 525.846C732.909 525.864 733.014 525.884 733.113 525.922L733.232 525.968C733.292 525.991 733.352 526.013 733.375 525.954C733.389 525.959 733.403 525.964 733.416 525.967C733.436 525.972 733.456 525.975 733.475 525.977C733.482 525.978 733.49 525.979 733.497 525.979C733.51 525.98 733.523 525.981 733.535 525.981C733.586 525.984 733.637 525.986 733.696 526.009C733.726 526.02 733.777 526.022 733.827 526.025C733.878 526.027 733.928 526.029 733.958 526.041C733.989 526.053 734.02 526.065 734.046 526.065C734.07 526.065 734.09 526.056 734.101 526.027H734.102C734.304 526.036 734.505 526.045 734.647 526.031C734.707 526.054 734.79 526.018 734.79 526.018C734.815 526.027 734.833 526.022 734.85 526.015L734.861 526.011C734.882 526.001 734.902 525.992 734.932 526.004C735.007 526.007 735.077 525.999 735.145 525.988L735.179 525.983L735.217 525.976C735.259 525.969 735.3 525.961 735.343 525.956C735.394 525.95 735.447 525.946 735.502 525.948C735.644 525.935 735.87 525.884 736.035 525.81C736.035 525.81 736.057 525.819 736.08 525.812C736.094 525.807 736.109 525.797 736.118 525.773L736.2 525.737L736.283 525.7C736.366 525.663 736.443 525.641 736.52 525.619C736.563 525.607 736.606 525.595 736.651 525.58C736.669 525.574 736.688 525.567 736.708 525.559C736.724 525.553 736.74 525.546 736.756 525.539C736.789 525.524 736.823 525.51 736.857 525.496C736.886 525.484 736.916 525.473 736.946 525.461L736.946 525.46L736.947 525.46L736.947 525.46C737.149 525.379 737.364 525.294 737.524 525.148C737.689 525.074 737.96 524.904 738.171 524.711C738.183 524.681 738.203 524.672 738.224 524.663C738.245 524.654 738.265 524.645 738.277 524.615C738.288 524.587 738.306 524.577 738.326 524.568C738.348 524.558 738.37 524.55 738.383 524.518C738.384 524.515 738.385 524.512 738.387 524.509C738.388 524.506 738.39 524.503 738.392 524.501C738.398 524.492 738.405 524.486 738.413 524.481C738.42 524.477 738.428 524.473 738.435 524.47C738.456 524.461 738.477 524.452 738.488 524.422C738.541 524.373 738.588 524.34 738.635 524.307C738.682 524.273 738.729 524.24 738.782 524.192L739.099 523.902C739.102 523.895 739.105 523.888 739.109 523.882C739.115 523.873 739.122 523.864 739.13 523.856C739.14 523.845 739.151 523.835 739.162 523.825L739.163 523.824L739.175 523.814L739.185 523.804C739.189 523.8 739.194 523.796 739.198 523.791C739.201 523.787 739.205 523.783 739.208 523.779L739.214 523.772C739.219 523.764 739.224 523.755 739.228 523.746C739.485 523.433 739.742 523.121 739.94 522.785L739.94 522.784C740.16 522.39 740.381 521.995 740.564 521.517L744.03 512.496C744.911 510.915 744.065 509.013 742.393 508.37ZM699.98 467.257C701.518 463.254 706.066 461.23 710.069 462.768L733.07 471.605C731.774 472.478 730.722 473.788 730.126 475.342L727.555 482.033L698.58 470.901L699.98 467.257ZM713.357 509.35C709.833 507.996 708.067 504.027 709.421 500.502C710.775 496.977 714.722 495.271 718.246 496.625C721.771 497.979 723.537 501.949 722.183 505.474C720.829 508.999 716.882 510.705 713.357 509.35ZM710.856 515.862L705.843 516.953L708.414 510.262C709.402 511.259 710.638 512.145 712.072 512.696C713.506 513.247 714.935 513.453 716.419 513.338L713.826 520.089L710.856 515.862ZM718.879 516.751L720.646 512.151C722.782 511.052 724.528 509.186 725.469 506.736C727.512 501.419 724.886 495.405 719.509 493.339C714.192 491.297 708.178 493.923 706.112 499.299C705.194 501.689 705.241 504.244 706.069 506.55L704.325 511.091L697.215 508.359C695.841 507.831 695.142 506.26 695.67 504.886L706.159 477.584L726.472 485.388C728.145 486.03 730.047 485.184 730.689 483.511L733.329 476.641C734.178 474.43 736.645 473.184 738.901 473.914L739.678 474.212C741.769 475.016 742.836 477.414 742.033 479.505L727.825 516.486C727.389 517.621 727.252 518.871 727.422 520.033L719.297 516.912C719.141 516.783 719.021 516.737 718.879 516.751ZM737.214 520.778C737.15 520.857 737.08 520.95 737.01 521.043C736.94 521.136 736.87 521.229 736.805 521.307C736.783 521.327 736.762 521.345 736.742 521.361C736.667 521.422 736.607 521.465 736.571 521.56L736.383 521.693C736.341 521.711 736.294 521.745 736.247 521.778C736.215 521.801 736.182 521.824 736.151 521.842C736.138 521.85 736.124 521.858 736.112 521.863L736.029 521.9C736.004 521.911 735.977 521.928 735.947 521.946C735.879 521.988 735.798 522.038 735.698 522.047C735.644 522.071 735.589 522.096 735.517 522.113C735.48 522.122 735.439 522.13 735.39 522.135L735.308 522.171C735.083 522.222 734.857 522.273 734.655 522.264C734.623 522.278 734.594 522.283 734.568 522.283C734.558 522.283 734.548 522.282 734.539 522.28C734.521 522.278 734.504 522.273 734.488 522.267C734.476 522.263 734.465 522.259 734.453 522.254C734.423 522.243 734.388 522.246 734.352 522.25C734.316 522.253 734.281 522.257 734.251 522.245L734.108 522.259C734.079 522.248 734.028 522.245 733.978 522.243L733.967 522.243C733.92 522.24 733.874 522.238 733.846 522.227L733.787 522.204C733.757 522.193 733.706 522.19 733.656 522.188C733.642 522.188 733.629 522.187 733.616 522.186L733.602 522.185C733.59 522.184 733.577 522.183 733.566 522.182C733.55 522.179 733.536 522.176 733.525 522.172L733.405 522.126L733.107 522.011C731.314 521.323 730.431 519.338 731.12 517.546L734.379 509.062L740.772 511.518C740.772 511.518 737.343 520.622 737.214 520.778ZM434.321 473.317H442.421C443.571 473.317 444.471 474.167 444.471 475.317V475.967C444.471 481.667 440.121 490.317 434.171 491.167C433.421 495.917 430.071 499.767 425.671 501.317V512.217H434.121C435.121 512.217 435.921 513.017 435.921 514.017V516.567C435.921 517.567 435.121 518.367 434.121 518.367H409.221C408.221 518.367 407.421 517.567 407.421 516.567V514.067C407.421 513.067 408.221 512.267 409.221 512.267H417.221V501.367C412.821 499.817 409.471 495.967 408.721 491.217C402.771 490.367 398.421 481.717 398.421 476.017V475.367C398.421 474.167 399.271 473.317 400.421 473.317H408.521V473.167C408.521 471.817 409.621 470.767 410.921 470.767H431.921C433.271 470.767 434.321 471.867 434.321 473.167V473.317ZM401.121 476.067C401.171 480.317 404.371 486.917 408.221 488.267V476.067H401.121ZM420.171 512.217H422.671V502.017C422.271 502.067 421.821 502.067 421.421 502.067C421.021 502.067 420.571 502.067 420.171 502.017V512.217ZM421.421 499.317C427.021 499.317 431.571 494.767 431.571 489.167V473.517H411.271V489.167C411.271 494.767 415.821 499.317 421.421 499.317ZM434.621 476.067V488.267C438.471 486.917 441.671 480.317 441.721 476.067H434.621ZM233.169 550.643L233.319 560.114L235.66 562.445C235.79 562.571 235.793 562.763 235.667 562.893L231.888 566.793C231.762 566.923 231.57 566.926 231.44 566.8L227.54 563.022C227.41 562.896 227.407 562.704 227.533 562.574L229.8 560.234L229.676 552.362L225.101 554.483L224.529 554.748L224.733 567.675C224.833 573.946 219.857 579.081 213.586 579.18L198.42 579.42C192.149 579.52 187.013 574.544 186.914 568.273L186.706 555.091L177.749 551.328C176.976 551.02 176.452 550.26 176.439 549.428C176.426 548.596 176.925 547.82 177.688 547.488L204.573 535.413C205.209 535.211 205.913 535.2 206.556 535.382L206.749 535.443L233.362 546.672C234.329 547.104 234.922 548.183 234.556 549.277C234.373 549.856 233.868 550.312 233.36 550.576L233.169 550.643ZM213.594 575.66C217.882 575.592 221.346 572.017 221.278 567.729L221.097 556.275L207.053 562.706C206.734 562.775 206.351 562.845 206.031 562.85C205.647 562.856 205.327 562.861 205.005 562.738L204.812 562.677L190.249 556.571L190.434 568.217C190.502 572.505 194.077 575.969 198.364 575.901L213.594 575.66ZM205.976 559.394L223.642 551.306L229.042 548.724L205.522 538.791L182.07 549.339L186.451 551.126L205.976 559.394ZM612.675 438.067L605.504 439.201L598.762 396.567C598.525 395.068 597.166 394.08 595.667 394.317L587.713 395.575C586.736 395.729 586.012 396.646 586.177 397.689C586.342 398.732 587.248 399.39 588.291 399.225L595.331 398.112L601.929 439.834L594.693 440.978C593.715 441.133 592.991 442.049 593.156 443.092C593.321 444.135 594.227 444.794 595.27 444.629L613.328 441.773C614.306 441.618 615.03 440.702 614.865 439.659C614.7 438.616 613.718 437.902 612.675 438.067ZM596.884 382.831C598.565 384.053 598.937 386.406 597.715 388.086C596.493 389.767 594.141 390.139 592.46 388.917C590.78 387.696 590.407 385.343 591.629 383.662C592.851 381.982 595.203 381.61 596.884 382.831ZM274.502 308.866L284.101 314.408C284.984 314.918 285.342 316.067 284.798 317.009C284.254 317.951 283.08 318.216 282.197 317.706L272.598 312.164C271.656 311.62 271.357 310.505 271.901 309.563C272.445 308.621 273.618 308.356 274.502 308.866ZM299.191 327.439L308.79 332.981C309.674 333.491 310.847 333.226 311.391 332.284C311.935 331.342 311.637 330.227 310.694 329.683L301.095 324.141C300.212 323.631 299.038 323.896 298.494 324.838C297.95 325.78 298.249 326.895 299.191 327.439ZM304.744 339.989L295.145 334.447C294.203 333.903 293.905 332.788 294.449 331.846C294.993 330.904 296.166 330.639 297.049 331.149L306.648 336.691C307.591 337.235 307.889 338.35 307.345 339.292C306.801 340.234 305.628 340.499 304.744 339.989ZM280.055 321.416L270.456 315.874C269.572 315.364 268.399 315.629 267.855 316.571C267.311 317.513 267.61 318.628 268.552 319.172L278.151 324.714C279.034 325.224 280.208 324.959 280.752 324.017C281.296 323.075 280.938 321.926 280.055 321.416ZM266.41 322.882L276.009 328.424C276.892 328.934 277.25 330.083 276.706 331.025C276.162 331.967 274.988 332.232 274.105 331.722L264.506 326.18C263.564 325.636 263.265 324.521 263.809 323.579C264.353 322.637 265.526 322.372 266.41 322.882ZM291.099 341.455L300.698 346.997C301.581 347.507 302.755 347.242 303.299 346.3C303.843 345.358 303.544 344.243 302.602 343.699L293.003 338.157C292.119 337.647 290.946 337.912 290.402 338.854C289.858 339.796 290.156 340.911 291.099 341.455ZM557.419 577.874L521.366 552.708C522.428 551.186 530.13 554.689 539.072 560.775L541.38 557.468L541.17 557.322C536.298 552.672 533.987 546.143 534.749 539.572L529.449 535.872C528.609 535.286 528.419 534.217 529.005 533.377C529.591 532.537 530.713 532.384 531.5 532.933L553.962 548.612C554.749 549.161 554.939 550.23 554.353 551.07C553.767 551.91 552.645 552.063 551.858 551.514L538.108 541.916C538.041 546.709 539.966 551.331 543.552 554.692C544.701 555.728 545.924 556.66 547.294 557.382C555.07 561.561 564.813 559.23 569.869 551.988C572.689 547.947 573.668 542.855 572.581 538.038C572.502 537.592 572.386 537.199 572.271 536.806L557.663 544.092C556.782 544.571 555.697 544.672 554.763 544.332L554.703 544.304L554.638 544.273L554.632 544.27L554.631 544.27C554.335 544.13 554.073 544.006 553.798 543.814C553.273 543.448 552.822 542.977 552.496 542.437L549.331 536.013C548.395 534.111 549.137 531.819 551.039 530.883L574.046 519.391C575.948 518.455 578.24 519.197 579.176 521.099L582.341 527.523C583.276 529.425 582.535 531.717 580.633 532.653L575.519 535.171C575.601 535.501 575.696 535.841 575.79 536.18C575.885 536.519 575.98 536.859 576.062 537.189C577.412 542.97 576.251 549.106 572.844 553.987C566.727 562.751 555.038 565.519 545.699 560.561L545.541 560.451L543.307 563.653C552.276 570.147 558.482 576.352 557.419 577.874ZM555.865 540.965C555.918 541.001 556.007 540.985 556.096 540.97L578.977 529.546C579.103 529.477 579.16 529.283 579.092 529.158L575.927 522.734C575.859 522.608 575.665 522.551 575.539 522.619L552.658 534.043C552.532 534.111 552.474 534.305 552.543 534.431L555.708 540.855L555.865 540.965ZM503.45 302.074C503.203 301.51 502.772 301.088 502.182 300.858L494.063 297.698C493.501 297.395 492.854 297.313 492.318 297.487C491.732 297.684 491.207 298.159 491 298.801L487.559 307.532L456.135 321.35C454.956 321.869 454.417 323.146 454.958 324.376L471.909 362.926C472.428 364.105 473.705 364.645 474.935 364.104L513.434 347.175C514.613 346.656 515.152 345.379 514.611 344.149L500.41 311.853L503.54 303.808C503.719 303.241 503.698 302.638 503.45 302.074ZM489.174 332.21L487.993 331.751C487.181 331.435 486.309 331.818 485.993 332.63C485.678 333.442 486.061 334.313 486.873 334.629L487.168 334.744L482.705 338.786L482.127 332.74L482.422 332.854C482.791 332.998 483.217 332.994 483.576 332.836C483.935 332.678 484.226 332.367 484.37 331.998C484.686 331.186 484.302 330.315 483.491 329.999L482.31 329.539L490.553 308.357L497.394 310.977L489.174 332.21ZM511.374 344.716L474.464 360.946L458.144 323.832L486.031 311.569L478.908 329.873L478.742 330.19L479.873 341.806C479.922 342.335 480.125 342.796 480.562 343.093L480.583 343.105C480.839 343.25 481.413 343.575 482.21 343.225L482.415 343.135L491.238 335.095L498.705 315.906L511.374 344.716ZM498.514 308.099L491.673 305.479L493.511 300.755L500.375 303.426L498.514 308.099ZM55.5926 476.331C56.0094 476.808 56.1951 477.382 56.1535 477.997C56.112 478.611 55.8507 479.155 55.4294 479.576L48.9275 485.254L46.5476 520.454C46.457 521.794 45.387 522.676 44.102 522.589L2.14178 519.752C0.800842 519.662 -0.0809933 518.592 0.00589132 517.307L2.84665 475.291C2.93731 473.95 4.00723 473.068 5.2923 473.155L39.5421 475.471L46.6367 469.327C47.1177 468.854 47.8032 468.676 48.4141 468.774C48.969 468.867 49.5051 469.24 49.8622 469.77L55.5926 476.331ZM28.7041 497.133L29.5377 498.087L46.661 483.08L41.8124 477.588L24.6928 492.54L25.5264 493.494C26.0994 494.15 26.0352 495.1 25.379 495.673C25.0808 495.934 24.6783 496.075 24.2872 496.048C23.8961 496.022 23.5164 495.828 23.2559 495.53L23.0475 495.291L20.7587 500.917L26.5862 499.403L26.3778 499.164C25.8047 498.508 25.869 497.558 26.5251 496.985C27.1813 496.412 28.1311 496.477 28.7041 497.133ZM3.18763 516.736L43.4158 519.456L45.5388 488.056L30.0298 501.6L18.4867 504.637L18.2632 504.621C17.3946 504.563 17.0363 504.009 16.8768 503.762L16.8634 503.741C16.6143 503.275 16.6483 502.772 16.8499 502.281L21.2295 491.464L21.524 491.259L36.3172 478.34L5.92262 476.284L3.18763 516.736ZM44.1388 475.557L48.9873 481.048L52.8012 477.77L47.9564 472.223L44.1388 475.557ZM680.971 336.83C680.688 335.55 680.421 334.341 680.181 333.089C679.898 331.893 679.619 330.668 679.337 329.434L679.335 329.426C679.058 328.213 678.779 326.991 678.494 325.78C678.379 325.096 678.03 324.505 677.519 324.174C677.008 323.844 676.389 323.688 675.764 323.833L634.723 333.339L623.529 342.809C623.159 343.119 622.89 343.555 622.888 344.042C622.929 344.555 623.193 345.092 623.704 345.422L623.875 345.532L638.252 349.154L679.224 339.664C680.474 339.375 681.254 338.11 680.971 336.83ZM634.482 337.207L634.765 338.487C634.843 338.843 635.061 339.166 635.359 339.359C635.657 339.552 636.035 339.613 636.383 339.533C637.146 339.356 637.603 338.615 637.43 337.833L636.959 335.699L665.848 329.008L668.11 339.249L639.306 345.995L638.819 343.79C638.646 343.008 637.923 342.54 637.159 342.717C636.395 342.894 635.938 343.635 636.111 344.418L636.409 345.769L627.176 343.46L634.482 337.207ZM670.904 338.676L668.626 328.365L675.891 326.719C676.064 327.502 676.241 328.287 676.419 329.072L676.42 329.08C676.775 330.648 677.129 332.216 677.446 333.76L677.446 333.76C677.682 334.827 677.917 335.893 678.126 337.004L670.904 338.676Z" fill="#667EEA"/>
</svg>
