<svg width="56" height="56" viewBox="0 0 56 56" fill="none" xmlns="http://www.w3.org/2000/svg">
<path d="M51.9834 31.668H45.7114V8.20404C45.7114 4.56404 42.7434 1.54004 39.1034 1.54004H39.0474C38.8234 1.54004 38.5434 1.54004 38.3194 1.54004H33.1114H11.2714C5.83937 1.54004 1.35938 5.96404 1.35938 11.452V15.148C1.35938 16.716 2.64737 18.004 4.21537 18.004H9.70337V43.596C9.70337 46.564 12.1114 49.028 15.1354 49.028H21.7994V52.612C21.7994 53.284 22.1914 53.9561 22.8074 54.236C23.0874 54.404 23.3674 54.46 23.7034 54.46C24.0394 54.46 24.4314 54.3481 24.7114 54.1241L28.6314 51.492L32.5514 54.1241C33.1114 54.5161 33.8394 54.516 34.4554 54.236C35.0714 53.9001 35.4634 53.284 35.4634 52.612V48.972C35.5754 49.028 35.7434 49.028 35.8554 49.028H48.7914C49.0154 49.028 49.1834 49.028 49.3514 48.972H49.4074H49.4634C49.5754 48.972 49.7434 48.916 49.9114 48.916C49.9674 48.916 50.0234 48.916 50.0234 48.916C50.0794 48.916 50.1354 48.916 50.1354 48.8601C50.2474 48.8601 50.3034 48.8041 50.4154 48.8041C50.4714 48.8041 50.5834 48.748 50.6394 48.748C50.6954 48.748 50.7514 48.748 50.7514 48.692C50.9194 48.636 51.0874 48.5801 51.1994 48.5241C51.2554 48.5241 51.3114 48.468 51.3114 48.468C51.3674 48.468 51.3674 48.412 51.4234 48.412C51.5914 48.356 51.7034 48.244 51.8714 48.188C51.9834 48.132 52.1514 48.02 52.2634 47.908C52.2634 47.908 52.3194 47.908 52.3194 47.852L52.3754 47.796L52.4314 47.74C52.5434 47.628 52.6554 47.572 52.7674 47.46C52.9354 47.292 53.1594 47.1241 53.2714 46.9C53.3834 46.788 53.5514 46.564 53.6634 46.34C53.6634 46.284 53.7194 46.284 53.7194 46.228C53.7194 46.172 53.7754 46.172 53.7754 46.116C53.7754 46.06 53.8314 46.0601 53.8314 46.0041C53.8874 45.892 53.9434 45.836 53.9994 45.724C54.0554 45.612 54.1114 45.5 54.1674 45.388C54.1674 45.332 54.2234 45.276 54.2234 45.22C54.3354 44.884 54.4474 44.548 54.5034 44.212C54.5594 43.82 54.6154 43.428 54.6154 42.98V34.524C54.8394 32.956 53.5514 31.668 51.9834 31.668ZM4.43937 11.396C4.43937 7.64404 7.51937 4.56404 11.2714 4.56404H32.8314C32.0474 5.68404 31.5994 7.08404 31.5994 8.54004V14.812H4.43937V11.396ZM28.5754 41.58C25.2714 41.58 22.5834 38.892 22.5834 35.588C22.5834 32.284 25.2714 29.652 28.5754 29.652C31.8794 29.652 34.5674 32.34 34.5674 35.644C34.5674 38.948 31.8794 41.58 28.5754 41.58ZM28.5754 47.6841L24.8234 50.148V43.876C25.9434 44.38 27.2314 44.716 28.5754 44.716C29.9194 44.716 31.1514 44.436 32.3274 43.876V50.2041L28.5754 47.6841ZM35.4074 45.892V41.58C36.8074 40.012 37.6474 37.94 37.6474 35.644C37.6474 30.66 33.6154 26.572 28.5754 26.572C23.5914 26.572 19.5034 30.604 19.5034 35.644C19.5034 37.884 20.3434 39.956 21.7434 41.58V45.836H15.0794C13.7914 45.836 12.7274 44.772 12.7274 43.4841V17.892H31.7674C33.3354 17.892 34.6234 16.604 34.6234 15.036V8.59604C34.6234 6.52404 36.2474 4.73204 38.3194 4.62004H39.0474C41.0074 4.62004 42.6314 6.24404 42.6314 8.20404V42.868C42.6314 43.932 42.9114 44.996 43.4154 45.892H35.7994C35.6314 45.836 35.5194 45.836 35.4074 45.892ZM51.6474 43.428C51.5914 43.596 51.5354 43.82 51.4794 43.988C51.4234 44.1 51.3674 44.156 51.3674 44.268L51.2554 44.436C51.1994 44.492 51.1434 44.604 51.0874 44.66L51.0314 44.716C50.9754 44.772 50.9194 44.884 50.8074 44.94C50.7514 44.996 50.6954 45.052 50.5834 45.108L50.5274 45.1641C50.3594 45.2761 50.1914 45.3881 50.0234 45.444C49.9674 45.5 49.9114 45.5 49.8554 45.5C49.7994 45.5 49.7434 45.556 49.6874 45.556L49.5754 45.612C49.5194 45.612 49.4074 45.668 49.3514 45.668H49.2954C49.2394 45.668 49.1274 45.724 49.0714 45.724H48.9594C48.8474 45.724 48.7914 45.724 48.6794 45.724C46.9994 45.724 45.6554 44.38 45.6554 42.7V34.748H51.6474C51.6474 34.748 51.7034 43.26 51.6474 43.428Z" fill="#1B63F0"/>
</svg>
