<svg width="40" height="54" viewBox="0 0 40 54" fill="none" xmlns="http://www.w3.org/2000/svg">
<path d="M39.4855 43.884L33.2135 29.996C35.3415 28.036 37.0215 25.572 38.1415 22.772C38.4215 21.988 38.0295 21.092 37.2455 20.756C36.4615 20.42 35.5655 20.868 35.2295 21.652C34.4455 23.668 33.2695 25.516 31.8135 27.028L27.5575 17.564C28.2295 16.332 28.5655 14.988 28.5655 13.532C28.5655 9.38801 25.6535 5.97201 21.7895 5.13201V2.44401C21.7895 1.49201 21.0055 0.708008 20.0535 0.708008C19.1015 0.708008 18.3175 1.49201 18.3175 2.44401V5.13201C14.4535 5.97201 11.5415 9.38801 11.5415 13.532C11.5415 14.988 11.9335 16.388 12.5495 17.564L8.29346 27.028C6.83746 25.516 5.71746 23.724 4.87746 21.652C4.54146 20.868 3.70146 20.476 2.86146 20.756C2.07746 21.092 1.68546 21.932 1.96546 22.772C3.08546 25.628 4.76546 28.036 6.89346 29.996L0.621461 43.884L0.397461 51.388C0.397461 52.116 0.789461 52.788 1.46146 53.124C1.68546 53.236 1.96546 53.292 2.18946 53.292C2.63746 53.292 3.08546 53.124 3.42146 52.788L8.85346 47.636L14.7895 34.476C16.4695 34.924 18.2055 35.204 19.9975 35.204C21.7895 35.204 23.5255 34.924 25.2055 34.476L31.1415 47.636L36.5735 52.788C36.9095 53.124 37.3575 53.292 37.8055 53.292C38.0295 53.292 38.3095 53.236 38.5335 53.124C39.2055 52.844 39.6535 52.172 39.5975 51.388L39.4855 43.884ZM17.2535 21.596L13.2215 30.556C12.3255 30.164 11.4855 29.66 10.6455 29.1L14.6775 20.196C15.4615 20.812 16.3015 21.26 17.2535 21.596ZM25.4295 20.196L29.4615 29.1C28.6775 29.66 27.7815 30.164 26.8855 30.556L22.8535 21.596C23.8055 21.26 24.6455 20.812 25.4295 20.196ZM20.0535 8.04401C23.0775 8.04401 25.5415 10.508 25.5415 13.532C25.5415 16.556 23.0775 19.02 20.0535 19.02C17.0295 19.02 14.5655 16.556 14.5655 13.532C14.5655 10.508 17.0295 8.04401 20.0535 8.04401ZM6.38946 45.788L3.58946 48.42L3.70146 44.612L9.41346 31.956C10.2535 32.516 11.0935 32.964 11.9895 33.356L6.38946 45.788ZM20.0535 32.068C18.7095 32.068 17.4215 31.9 16.1335 31.62L20.0535 22.94L23.9735 31.62C22.6855 31.9 21.3975 32.068 20.0535 32.068ZM33.7175 45.788L28.1175 33.412C29.0135 33.02 29.8535 32.516 30.6935 32.012L36.4055 44.612L36.5175 48.42L33.7175 45.788Z" fill="#1B63F0"/>
</svg>
