<svg aria-hidden="true" style="position: absolute; width: 0; height: 0; overflow: hidden;" version="1.1" xmlns="http://www.w3.org/2000/svg" xmlns:xlink="http://www.w3.org/1999/xlink">
<defs>
<symbol id="icon-background" viewBox="0 0 41 32">
<path fill="#667eea" style="fill: var(--color1, #667eea)" opacity="0.05" d="M17.823 1.643l-1.215-0.702c-0.062-0.036-0.13-0.045-0.196-0.035-0.025-0.062-0.067-0.117-0.129-0.152l-1.215-0.702c-0.084-0.049-0.195-0.022-0.246 0.066l-1.052 1.823c-0.049 0.084-0.022 0.195 0.066 0.246l1.283 0.741-0.004 0.006c-0.028 0.049-0.014 0.114 0.038 0.143s0.114 0.014 0.143-0.038l0.004-0.006 1.296 0.748c0.084 0.049 0.195 0.022 0.246-0.066l1.054-1.826c0.042-0.088 0.013-0.196-0.074-0.246zM14.988 0.244l1.192 0.688c0.039 0.022 0.056 0.076 0.032 0.118l-0.975 1.69c-0.001 0.001-0.002 0.002-0.004 0.004s-0.005 0.004-0.007 0.008l-1.264-0.73 1.026-1.777zM16.673 3.583l-1.264-0.73 0.983-1.703c0.023-0.039 0.076-0.056 0.118-0.032l1.192 0.688-1.026 1.777-0.003-0.002zM6.155 1.37l-0.261-0.453 0.007-0.008c0.017-0.026 0.030-0.062 0.023-0.095-0.012-0.063-0.069-0.099-0.127-0.094l-1.595 0.175c-0.036 0.008-0.070 0.028-0.095 0.055l-0.972 1.303c-0.028 0.036-0.031 0.087-0.008 0.127s0.069 0.062 0.114 0.056l0.533-0.059 0.364 0.63c0.173 0.3 0.554 0.402 0.854 0.229l0.725-0.418c0.3-0.173 0.402-0.554 0.229-0.854l-0.357-0.618 0.184-0.253 0.217 0.376-0.047 0.174c-0.003 0.010 0.003 0.019 0.012 0.021l0.289 0.078c0.010 0.003 0.019-0.003 0.021-0.012l0.078-0.289c0.003-0.010-0.003-0.019-0.012-0.021l-0.175-0.050zM5.778 2.060c0.118 0.205 0.047 0.47-0.158 0.588l-0.728 0.42c-0.205 0.118-0.47 0.047-0.588-0.158l-0.321-0.557 0.866-0.096 0.011-0.002c0.019-0.003 0.034-0.012 0.052-0.022 0.015-0.009 0.032-0.022 0.045-0.034l0.505-0.687 0.316 0.547zM5.452 1.205l-0.635 0.864-1.163 0.125-0.259 0.031 0.848-1.138 1.4-0.152-0.191 0.269zM16.338 7.525l1.414-0.816c0.040-0.023 0.056-0.075 0.032-0.118s-0.077-0.052-0.117-0.029l-1.414 0.816c-0.163 0.094-0.228 0.292-0.155 0.461 0 0.007 0.005 0.015 0.010 0.023l1.157 2.003c0.074 0.129 0.239 0.173 0.367 0.098l1.449-0.837c0.054-0.031 0.073-0.103 0.042-0.156l-1.065-1.845c-0.031-0.054-0.103-0.073-0.156-0.042l-1.363 0.787c-0.094 0.054-0.221 0.020-0.275-0.074s-0.019-0.218 0.075-0.272zM16.622 8.018l1.315-0.759 1.010 1.749-1.401 0.809c-0.048 0.028-0.107 0.012-0.135-0.036l-0.99-1.714c0.067 0.004 0.137-0.011 0.201-0.048zM18.381 8.93l-0.68 0.393c-0.040 0.023-0.056 0.075-0.032 0.118s0.075 0.056 0.118 0.032l0.678-0.391c0.040-0.023 0.056-0.075 0.032-0.118s-0.075-0.056-0.116-0.033zM17.887 7.919l-0.817 0.472c-0.029 0.017-0.067 0.007-0.084-0.023l-0.093-0.161c-0.017-0.029-0.007-0.067 0.023-0.085l0.817-0.472c0.029-0.017 0.067-0.007 0.084 0.023l0.093 0.161c0.017 0.029 0.007 0.067-0.023 0.085zM40.96 11.827l-0.369-0.142 0.531-1.381c0.082-0.214-0.024-0.459-0.238-0.542l-0.003-0.001-0.043-0.017-1.592-0.612c-0.32-0.123-0.683 0.036-0.808 0.359l-0.084 0.218c-0.035 0.092 0.011 0.197 0.103 0.233l0.323 0.124-0.579 1.506c-0.067 0.175 0.019 0.374 0.197 0.443l0.392 0.151-0.081 0.211c-0.015 0.040-0.007 0.088 0.023 0.118 0.013 0.016 0.028 0.026 0.048 0.033s0.045 0.010 0.067 0.003l0.29-0.066 0.171 0.244c0.024 0.036 0.067 0.052 0.11 0.050 0.044-0.006 0.081-0.033 0.096-0.073l0.082-0.214c0.005 0.006 0.015 0.010 0.022 0.012l0.761 0.293c0.013 0.005 0.023 0.009 0.034 0.009l0.007 0.003c0.001 0 0.002 0.001 0.002 0.001l0.001 0c0.001 0 0.001 0 0.001 0l0.001 0 0.001 0 0.001 0 0.002 0 0.002 0c0.005 0.001 0.011 0.002 0.017 0.004l0.007 0.003c0.003 0.001 0.007 0.002 0.008-0.001 0.001 0 0.002 0.001 0.002 0.001s0.002 0 0.003 0.001c0.001 0 0.002 0 0.003 0 0.003 0 0.006 0 0.009 0.002s0.011 0.001 0.014 0.002 0.007 0.003 0.008-0.001c0.011 0.001 0.022 0.001 0.030 0 0.003 0.001 0.008-0.001 0.008-0.001 0.001 0.001 0.002 0 0.003-0s0.003-0.001 0.005-0.001 0.008-0 0.012-0.001c0.001-0 0.003-0 0.004-0.001 0.005-0.001 0.010-0.002 0.016-0.002 0.008-0.001 0.020-0.004 0.029-0.008 0 0 0.003 0.001 0.005-0.002l0.005-0.002 0.005-0.002c0.007-0.003 0.014-0.004 0.020-0.007 0.001-0 0.002-0.001 0.003-0.001s0.002-0.001 0.003-0.001c0.003-0.002 0.007-0.003 0.010-0.004v-0h0c0.011-0.004 0.023-0.009 0.032-0.017 0.009-0.004 0.024-0.013 0.036-0.024 0.001-0.003 0.005-0.002 0.006-0.005s0.005-0.002 0.006-0.005c0-0 0-0 0-0.001s0-0 0-0 0.001-0.001 0.001-0.001 0.001-0 0.001-0.001 0.002-0.001 0.003-0.003 0.006-0.005 0.008-0.006c0.003-0.002 0.005-0.004 0.008-0.006l0.017-0.016c0-0 0-0.001 0.001-0.001s0.001-0.001 0.001-0.001 0.001-0.001 0.002-0.002l0.001-0.001 0.001-0.001c0-0 0.001-0 0.001-0.001s0-0 0.001-0.001l0-0c0-0 0.001-0.001 0.001-0.001 0.014-0.017 0.028-0.034 0.039-0.053v0c0.012-0.022 0.024-0.044 0.034-0.070l0.191-0.498c0.049-0.087 0.002-0.192-0.090-0.228zM38.62 9.559c0.085-0.221 0.336-0.333 0.557-0.248l1.269 0.488c-0.072 0.048-0.13 0.12-0.162 0.206l-0.142 0.369-1.599-0.614 0.077-0.201zM39.358 11.881c-0.194-0.075-0.292-0.294-0.217-0.488s0.292-0.289 0.487-0.214c0.194 0.075 0.292 0.294 0.217 0.488s-0.292 0.289-0.487 0.214zM39.22 12.241l-0.277 0.060 0.142-0.369c0.054 0.055 0.123 0.104 0.202 0.134s0.158 0.042 0.24 0.035l-0.143 0.372-0.164-0.233zM39.662 12.29l0.097-0.254c0.118-0.061 0.214-0.164 0.266-0.299 0.113-0.293-0.032-0.625-0.329-0.739-0.293-0.113-0.625 0.032-0.739 0.329-0.051 0.132-0.048 0.273-0.002 0.4l-0.096 0.251-0.392-0.151c-0.076-0.029-0.114-0.116-0.085-0.192l0.579-1.506 1.121 0.431c0.092 0.035 0.197-0.011 0.233-0.104l0.146-0.379c0.047-0.122 0.183-0.191 0.307-0.15l0.043 0.016c0.115 0.044 0.174 0.177 0.13 0.292l-0.784 2.040c-0.024 0.063-0.032 0.132-0.022 0.196l-0.448-0.172c-0.009-0.007-0.015-0.010-0.023-0.009zM40.674 12.512c-0.004 0.004-0.007 0.009-0.011 0.015s-0.008 0.010-0.011 0.015c-0.001 0.001-0.002 0.002-0.003 0.003-0.004 0.003-0.007 0.006-0.009 0.011l-0.010 0.007c-0.002 0.001-0.005 0.003-0.008 0.005s-0.005 0.004-0.007 0.005l-0.005 0.002c-0.001 0.001-0.003 0.002-0.005 0.003-0.004 0.002-0.008 0.005-0.014 0.006-0.003 0.001-0.006 0.003-0.010 0.004-0.002 0.001-0.004 0.001-0.007 0.001l-0.005 0.002c-0.012 0.003-0.025 0.006-0.036 0.005-0.002 0.001-0.005 0.001-0.006 0.001s-0.003-0.001-0.005-0.001-0.008 0.001-0.011-0.001l-0.008 0.001c-0.002-0.001-0.005-0.001-0.008-0.001s-0.005-0-0.007-0.001l-0.003-0.001c-0.002-0.001-0.004-0.001-0.007-0.001-0.001-0-0.002-0-0.003-0s-0.001-0-0.002-0-0.002-0-0.002-0.001l-0.007-0.003-0.016-0.006c-0.099-0.038-0.148-0.147-0.11-0.246l0.18-0.468 0.353 0.136c0 0-0.189 0.502-0.196 0.511zM23.963 9.893h0.447c0.063 0 0.113 0.047 0.113 0.11v0.036c0 0.314-0.24 0.792-0.568 0.839-0.041 0.262-0.226 0.474-0.469 0.56v0.601h0.466c0.055 0 0.099 0.044 0.099 0.099v0.141c0 0.055-0.044 0.099-0.099 0.099h-1.374c-0.055 0-0.099-0.044-0.099-0.099v-0.138c0-0.055 0.044-0.099 0.099-0.099h0.441v-0.601c-0.243-0.086-0.428-0.298-0.469-0.56-0.328-0.047-0.568-0.524-0.568-0.839v-0.036c0-0.066 0.047-0.113 0.11-0.113h0.447v-0.008c0-0.074 0.061-0.132 0.132-0.132h1.159c0.074 0 0.132 0.061 0.132 0.132v0.008zM22.131 10.045c0.003 0.234 0.179 0.599 0.392 0.673v-0.673h-0.392zM23.182 12.040h0.138v-0.563c-0.022 0.003-0.047 0.003-0.069 0.003s-0.047 0-0.069-0.003v0.563zM23.251 11.328c0.309 0 0.56-0.251 0.56-0.56v-0.863h-1.12v0.863c0 0.309 0.251 0.56 0.56 0.56zM23.979 10.045v0.673c0.212-0.074 0.389-0.439 0.392-0.673h-0.392zM12.864 14.16l0.008 0.523 0.129 0.129c0.007 0.007 0.007 0.018 0 0.025l-0.209 0.215c-0.007 0.007-0.018 0.007-0.025 0l-0.215-0.208c-0.007-0.007-0.007-0.018-0-0.025l0.125-0.129-0.007-0.434-0.284 0.132 0.011 0.713c0.006 0.346-0.269 0.629-0.615 0.635l-0.837 0.013c-0.346 0.006-0.629-0.269-0.635-0.615l-0.011-0.727-0.494-0.208c-0.043-0.017-0.072-0.059-0.072-0.105s0.027-0.089 0.069-0.107l1.483-0.666c0.035-0.011 0.074-0.012 0.109-0.002l0.011 0.003 1.468 0.619c0.053 0.024 0.086 0.083 0.066 0.144-0.010 0.032-0.038 0.057-0.066 0.072l-0.011 0.004zM11.784 15.54c0.237-0.004 0.428-0.201 0.424-0.438l-0.010-0.632-0.775 0.355c-0.018 0.004-0.039 0.008-0.056 0.008-0.021 0-0.039 0.001-0.057-0.006l-0.011-0.003-0.803-0.337 0.010 0.643c0.004 0.237 0.201 0.428 0.438 0.424l0.84-0.013zM11.364 14.642l0.975-0.446 0.298-0.142-1.298-0.548-1.294 0.582 0.242 0.099 1.077 0.456zM33.803 7.949l-0.396 0.063-0.372-2.352c-0.013-0.083-0.088-0.137-0.171-0.124l-0.439 0.069c-0.054 0.009-0.094 0.059-0.085 0.117s0.059 0.094 0.117 0.085l0.388-0.061 0.364 2.302-0.399 0.063c-0.054 0.009-0.094 0.059-0.085 0.117s0.059 0.094 0.117 0.085l0.996-0.158c0.054-0.009 0.094-0.059 0.085-0.117s-0.063-0.097-0.121-0.088zM32.932 4.901c0.093 0.067 0.113 0.197 0.046 0.29s-0.197 0.113-0.29 0.046c-0.093-0.067-0.113-0.197-0.046-0.29s0.197-0.113 0.29-0.046zM15.145 0.82l0.53 0.306c0.049 0.028 0.068 0.091 0.038 0.143s-0.095 0.067-0.143 0.038l-0.53-0.306c-0.052-0.030-0.068-0.092-0.038-0.143s0.095-0.067 0.143-0.038zM16.507 1.845l0.53 0.306c0.049 0.028 0.113 0.014 0.143-0.038s0.014-0.113-0.038-0.143l-0.53-0.306c-0.049-0.028-0.113-0.014-0.143 0.038s-0.014 0.113 0.038 0.143zM16.813 2.537l-0.53-0.306c-0.052-0.030-0.068-0.091-0.038-0.143s0.095-0.067 0.143-0.038l0.53 0.306c0.052 0.030 0.068 0.091 0.038 0.143s-0.095 0.067-0.143 0.038zM15.451 1.513l-0.53-0.306c-0.049-0.028-0.114-0.014-0.143 0.038s-0.014 0.113 0.038 0.143l0.53 0.306c0.049 0.028 0.114 0.014 0.143-0.038s0.010-0.115-0.038-0.143zM14.698 1.593l0.53 0.306c0.049 0.028 0.068 0.091 0.038 0.144s-0.095 0.067-0.143 0.038l-0.53-0.306c-0.052-0.030-0.068-0.091-0.038-0.143s0.095-0.067 0.143-0.038zM16.061 2.618l0.53 0.306c0.049 0.028 0.113 0.014 0.143-0.038s0.014-0.114-0.038-0.143l-0.53-0.306c-0.049-0.028-0.113-0.014-0.143 0.038s-0.014 0.113 0.038 0.143zM30.754 15.662l-1.989-1.388c0.059-0.084 0.484 0.109 0.977 0.445l0.127-0.182-0.012-0.008c-0.269-0.257-0.396-0.617-0.354-0.979l-0.292-0.204c-0.046-0.032-0.057-0.091-0.024-0.138s0.094-0.055 0.138-0.024l1.239 0.865c0.043 0.030 0.054 0.089 0.022 0.136s-0.094 0.055-0.138 0.024l-0.759-0.53c-0.004 0.264 0.102 0.519 0.3 0.705 0.063 0.057 0.131 0.109 0.206 0.148 0.429 0.231 0.967 0.102 1.246-0.298 0.156-0.223 0.21-0.504 0.15-0.77-0.004-0.025-0.011-0.046-0.017-0.068l-0.806 0.402c-0.049 0.026-0.108 0.032-0.16 0.013l-0.003-0.002-0.004-0.002-0-0c-0.016-0.008-0.031-0.015-0.046-0.025-0.029-0.020-0.054-0.046-0.072-0.076l-0.175-0.354c-0.052-0.105-0.011-0.231 0.094-0.283l1.269-0.634c0.105-0.052 0.231-0.011 0.283 0.094l0.175 0.354c0.052 0.105 0.011 0.231-0.094 0.283l-0.282 0.139c0.005 0.018 0.010 0.037 
0.015 0.056s0.010 0.037 0.015 0.056c0.074 0.319 0.010 0.658-0.178 0.927-0.337 0.484-0.982 0.636-1.498 0.363l-0.009-0.006-0.123 0.177c0.495 0.358 0.837 0.701 0.779 0.785zM30.668 13.626c0.003 0.002 0.008 0.001 0.013 0l1.262-0.63c0.007-0.004 0.010-0.014 0.006-0.021l-0.175-0.354c-0.004-0.007-0.014-0.010-0.021-0.006l-1.262 0.63c-0.007 0.004-0.010 0.014-0.006 0.021l0.175 0.354 0.009 0.006zM27.777 0.445c-0.014-0.031-0.037-0.054-0.070-0.067l-0.448-0.174c-0.031-0.017-0.067-0.021-0.096-0.012-0.032 0.011-0.061 0.037-0.073 0.073l-0.19 0.482-1.734 0.762c-0.065 0.029-0.095 0.099-0.065 0.167l0.935 2.127c0.029 0.065 0.099 0.095 0.167 0.065l2.124-0.934c0.065-0.029 0.095-0.099 0.065-0.167l-0.784-1.782 0.173-0.444c0.010-0.031 0.009-0.065-0.005-0.096zM26.989 2.108l-0.065-0.025c-0.045-0.017-0.093 0.004-0.11 0.049s0.004 0.093 0.049 0.11l0.016 0.006-0.246 0.223-0.032-0.334 0.016 0.006c0.020 0.008 0.044 0.008 0.064-0.001s0.036-0.026 0.044-0.046c0.017-0.045-0.004-0.093-0.049-0.11l-0.065-0.025 0.455-1.169 0.377 0.145-0.454 1.171zM28.214 2.798l-2.036 0.895-0.9-2.048 1.539-0.677-0.393 1.010-0.009 0.018 0.062 0.641c0.003 0.029 0.014 0.055 0.038 0.071l0.001 0.001c0.014 0.008 0.046 0.026 0.090 0.007l0.011-0.005 0.487-0.444 0.412-1.059 0.699 1.589zM27.504 0.778l-0.377-0.145 0.101-0.261 0.379 0.147-0.103 0.258zM3.067 10.060c0.023 0.026 0.033 0.058 0.031 0.092s-0.017 0.064-0.040 0.087l-0.359 0.313-0.131 1.942c-0.005 0.074-0.064 0.123-0.135 0.118l-2.315-0.157c-0.074-0.005-0.123-0.064-0.118-0.135l0.157-2.318c0.005-0.074 0.064-0.123 0.135-0.118l1.89 0.128 0.391-0.339c0.027-0.026 0.064-0.036 0.098-0.030 0.031 0.005 0.060 0.026 0.080 0.055l0.316 0.362zM1.584 11.207l0.046 0.053 0.945-0.828-0.268-0.303-0.945 0.825 0.046 0.053c0.032 0.036 0.028 0.089-0.008 0.12-0.016 0.014-0.039 0.022-0.060 0.021s-0.043-0.012-0.057-0.029l-0.012-0.013-0.126 0.31 0.322-0.084-0.012-0.013c-0.032-0.036-0.028-0.089 0.008-0.12s0.089-0.028 0.12 0.008zM0.176 12.289l2.22 0.15 0.117-1.732-0.856 0.747-0.637 0.168-0.012-0.001c-0.048-0.003-0.068-0.034-0.077-0.047l-0.001-0.001c-0.014-0.026-0.012-0.053-0.001-0.081l0.242-0.597 0.016-0.011 0.816-0.713-1.677-0.113-0.151 2.232zM2.435 10.017l0.268 0.303 0.21-0.181-0.267-0.306-0.211 0.184zM37.571 1.973c-0.016-0.071-0.030-0.137-0.044-0.206-0.016-0.066-0.031-0.134-0.047-0.202l-0-0c-0.015-0.067-0.031-0.134-0.046-0.201-0.006-0.038-0.026-0.070-0.054-0.089s-0.062-0.027-0.097-0.019l-2.264 0.524-0.618 0.522c-0.020 0.017-0.035 0.041-0.035 0.068 0.002 0.028 0.017 0.058 0.045 0.076l0.009 0.006 0.793 0.2 2.261-0.524c0.069-0.016 0.112-0.086 0.096-0.156zM35.006 1.994l0.016 0.071c0.004 0.020 0.016 0.037 0.033 0.048s0.037 0.014 0.056 0.010c0.042-0.010 0.067-0.051 0.058-0.094l-0.026-0.118 1.594-0.369 0.125 0.565-1.589 0.372-0.027-0.122c-0.010-0.043-0.049-0.069-0.092-0.059s-0.067 0.051-0.058 0.094l0.016 0.075-0.509-0.127 0.403-0.345zM37.015 2.075l-0.126-0.569 0.401-0.091c0.010 0.043 0.019 0.087 0.029 0.13l0 0c0.020 0.087 0.039 0.173 0.057 0.258 0.013 0.059 0.026 0.118 0.038 0.179l-0.398 0.092zM17.823 17.864l-1.215-0.702c-0.062-0.036-0.13-0.045-0.196-0.035-0.025-0.062-0.067-0.117-0.129-0.152l-1.215-0.702c-0.084-0.049-0.195-0.022-0.246 0.066l-1.052 1.823c-0.049 0.084-0.022 0.195 0.066 0.246l1.283 0.741-0.004 0.006c-0.028 0.049-0.014 0.113 0.038 0.143s0.114 0.014 0.143-0.038l0.004-0.006 1.296 0.748c0.084 0.049 0.195 0.022 0.246-0.066l1.054-1.826c0.042-0.088 0.013-0.196-0.074-0.246zM14.988 16.465l1.192 0.688c0.039 0.023 0.056 0.076 0.032 0.118l-0.975 1.69c-0.001 0.001-0.002 0.002-0.004 0.004s-0.005 0.004-0.007 0.008l-1.264-0.73 1.026-1.777zM16.673 19.803l-1.264-0.73 0.983-1.703c0.023-0.039 0.076-0.056 0.118-0.032l1.192 0.688-1.026 1.777-0.003-0.002zM6.155 17.59l-0.261-0.453 0.007-0.008c0.017-0.026 0.030-0.062 0.023-0.095-0.012-0.063-0.069-0.099-0.127-0.094l-1.595 0.175c-0.036 0.009-0.070 0.028-0.095 0.055l-0.972 1.303c-0.028 0.036-0.031 0.087-0.008 0.127s0.069 0.062 0.114 0.056l0.533-0.059 0.364 0.63c0.173 0.3 0.554 0.402 0.854 0.229l0.725-0.418c0.3-0.173 0.402-0.554 0.229-0.854l-0.357-0.618 0.184-0.253 0.217 0.376-0.047 0.174c-0.003 0.010 0.003 0.019 0.012 0.021l0.289 0.078c0.010 0.003 0.019-0.003 0.021-0.012l0.078-0.289c0.003-0.010-0.003-0.019-0.012-0.021l-0.175-0.050zM5.778 18.281c0.118 0.205 0.047 0.47-0.158 0.588l-0.728 0.42c-0.205 0.118-0.47 0.047-0.588-0.158l-0.321-0.557 0.866-0.096 0.011-0.002c0.019-0.003 0.034-0.012 0.052-0.022 0.015-0.009 0.032-0.023 0.045-0.034l0.505-0.687 0.316 0.547zM5.452 17.425l-0.635 0.864-1.163 0.125-0.259 0.031 0.848-1.138 1.4-0.152-0.191 0.269zM16.338 23.745l1.414-0.816c0.040-0.023 0.056-0.075 0.032-0.118s-0.077-0.052-0.117-0.029l-1.414 0.816c-0.163 0.094-0.228 0.292-0.155 0.461 0 0.007 0.005 0.015 0.010 0.023l1.157 2.003c0.074 0.129 0.239 0.173 0.367 0.098l1.449-0.837c0.054-0.031 0.073-0.103 0.042-0.156l-1.065-1.845c-0.031-0.054-0.103-0.073-0.156-0.042l-1.363 0.787c-0.094 0.054-0.221 0.020-0.275-0.074s-0.019-0.218 0.075-0.272zM16.622 24.238l1.315-0.759 1.010 1.749-1.401 0.809c-0.048 0.028-0.107 0.012-0.135-0.036l-0.99-1.714c0.067 0.004 0.137-0.011 0.201-0.048zM18.381 25.151l-0.68 0.393c-0.040 0.023-0.056 0.075-0.032 0.118s0.075 0.056 0.118 0.032l0.678-0.391c0.040-0.023 0.056-0.075 0.032-0.118s-0.075-0.056-0.116-0.033zM17.887 24.14l-0.817 0.472c-0.029 0.017-0.067 0.007-0.084-0.023l-0.093-0.161c-0.017-0.029-0.007-0.067 0.023-0.085l0.817-0.472c0.029-0.017 0.067-0.007 0.084 0.023l0.093 0.161c0.017 0.029 0.007 0.067-0.023 0.085zM40.96 28.048l-0.369-0.142 0.531-1.381c0.082-0.214-0.024-0.459-0.238-0.542l-0.003-0.001-0.043-0.017-1.592-0.612c-0.32-0.123-0.683 0.036-0.808 0.359l-0.084 0.218c-0.035 0.092 0.011 0.197 0.103 0.233l0.323 0.124-0.579 1.506c-0.067 0.175 0.019 0.374 0.197 0.443l0.392 0.151-0.081 0.211c-0.015 0.040-0.007 0.088 0.023 0.118 0.013 0.016 0.028 0.026 0.048 0.033s0.045 0.010 0.067 0.003l0.29-0.066 0.171 0.244c0.024 0.036 0.067 0.052 0.11 0.050 0.044-0.006 0.081-0.033 0.096-0.073l0.082-0.214c0.005 0.006 0.015 0.010 0.022 0.012l0.761 0.293c0.013 0.005 0.023 0.009 0.034 0.009l0.007 0.003c0.001 0 0.002 0 0.002 0.001l0.001 0c0.001 0 0.001 0 0.001 0l0.001 0 0.001 0 0.001 0 0.002 0 0.002 0h0c0.005 0.001 0.011 0.002 0.017 0.004l0.007 0.003c0.003 0.001 0.007 0.002 0.008-0.001 0.001 0 0.002 0.001 0.002 0.001s0.002 0 0.003 0.001c0 0 0.001 0 0.001 0s0.001 0 0.002 0c0.003 0 0.006 0 0.009 0.002 0.002 0.001 0.004 0.001 0.007 0.001s0.006 0 0.007 0.001c0.002 0.001 0.003 0.001 0.005 0.001s0.002-0 0.003-0.002h0c0.011 0 0.022 0.001 0.030 0 0.003 0.001 0.008-0.001 0.008-0.001 0.001 0 0.002 0 0.003-0l0.001-0c0.001-0.001 0.002-0.001 0.004-0 0.004 0 0.008-0 0.012-0.001l0.002-0 0.002-0c0.002-0 0.005-0.001 0.007-0.001s0.006-0.001 0.009-0c0.008-0.001 0.020-0.004 0.029-0.008 0 0 0.001 0 0.002 0s0.002-0.001 0.002-0.002l0.009-0.004c0.005-0.002 0.009-0.003 0.013-0.004 0.002-0.001 0.005-0.001 0.007-0.002 0.001-0 0.002-0.001 0.003-0.001s0.002-0.001 0.003-0.001 0.004-0.002 0.006-0.002c0.002-0.001 0.003-0.001 0.005-0.002v-0h0c0.011-0.004 0.023-0.009 0.032-0.017 0.009-0.004 0.024-0.013 0.036-0.024 0.001-0.002 0.002-0.002 0.003-0.003s0.002-0.001 0.003-0.003c0.001-0.002 0.002-0.002 0.003-0.003s0.002-0.001 0.003-0.003c0-0 0-0 0-0s0-0 0-0 0.001-0.001 0.001-0.001 0.001-0 0.001-0.001 0.002-0.001 0.003-0.003 0.006-0.005 0.008-0.006c0.003-0.002 0.005-0.004 0.008-0.006l0.017-0.016c0-0 0-0.001 0.001-0.001s0.001-0.001 0.001-0.001 0.001-0.001 0.002-0.002l0-0 0.001-0.001 0.001-0.001c0-0 0.001-0 0.001-0.001s0-0 0.001-0.001l0-0c0-0 0.001-0.001 0.001-0.001 0.014-0.017 0.028-0.034 0.039-0.053v-0c0.012-0.022 0.024-0.044 0.034-0.070l0.191-0.498c0.049-0.087 0.002-0.192-0.090-0.228zM38.62 25.78c0.085-0.221 0.336-0.333 0.557-0.248l1.269 0.488c-0.072 0.048-0.13 0.12-0.162 0.206l-0.142 0.369-1.599-0.614 0.077-0.201zM39.358 28.102c-0.194-0.075-0.292-0.294-0.217-0.488s0.292-0.289 0.487-0.214c0.194 0.075 0.292 0.294 0.217 0.488s-0.292 0.289-0.487 0.214zM39.22 28.461l-0.277 0.060 0.142-0.369c0.054 0.055 0.123 0.104 0.202 0.134s0.158 0.042 0.24 0.035l-0.143 0.372-0.164-0.233zM39.662 28.51l0.097-0.254c0.118-0.061 0.214-0.164 0.266-0.299 0.113-0.293-0.032-0.625-0.329-0.739-0.293-0.113-0.625 0.032-0.739 0.329-0.051 0.132-0.048 0.273-0.002 0.4l-0.096 0.251-0.392-0.151c-0.076-0.029-0.114-0.116-0.085-0.192l0.579-1.506 1.121 0.431c0.092 0.035 0.197-0.011 0.233-0.104l0.146-0.379c0.047-0.122 0.183-0.191 0.307-0.15l0.043 0.016c0.115 0.044 0.174 0.177 0.13 0.292l-0.784 2.040c-0.024 0.063-0.032 0.132-0.022 0.196l-0.448-0.172c-0.009-0.007-0.015-0.010-0.023-0.009zM40.674 28.733c-0.004 0.004-0.007 0.009-0.011 0.015s-0.008 0.010-0.011 0.015c-0.001 0.001-0.002 0.002-0.003 0.003-0.004 0.003-0.007 0.006-0.009 0.011l-0.010 0.007c-0.002 0.001-0.005 0.003-0.008 0.005s-0.004 0.003-0.005 0.004c-0.001 0-0.002 0.001-0.002 0.001l-0.005 0.002c-0.001 0.001-0.003 0.002-0.005 0.003-0.004 0.002-0.008 0.005-0.014 0.006-0.003 0.001-0.006 0.003-0.010 0.004-0.002 0-0.004 0.001-0.007 0.001l-0.005 0.002c-0.012 0.003-0.025 0.006-0.036 0.005-0.002 0.001-0.003 0.001-0.005 0.001s-0.001-0-0.002-0-0.002-0-0.003-0.001c-0.001-0-0.001-0-0.002-0.001-0.002-0.001-0.004-0-0.006-0s-0.004 0-0.006-0l-0.008 0.001c-0.002-0.001-0.004-0.001-0.007-0.001h-0.001c-0.003-0-0.005-0-0.007-0.001l-0.003-0.001c-0.002-0.001-0.004-0.001-0.007-0.001-0.001 0-0.002-0-0.002-0l-0.001-0c-0.001-0-0.001-0-0.002-0s-0.002-0-0.002-0.001l-0.007-0.003-0.016-0.006c-0.099-0.038-0.148-0.147-0.11-0.246l0.18-0.468 0.353 0.136c0 0-0.189 0.502-0.196 0.511zM23.963 26.114h0.447c0.063 0 0.113 0.047 0.113 0.11v0.036c0 0.314-0.24 0.792-0.568 0.839-0.041 0.262-0.226 0.474-0.469 0.56v0.601h0.466c0.055 0 0.099 0.044 0.099 0.099v0.141c0 0.055-0.044 0.099-0.099 0.099h-1.374c-0.055 0-0.099-0.044-0.099-0.099v-0.138c0-0.055 0.044-0.099 0.099-0.099h0.441v-0.601c-0.243-0.086-0.428-0.298-0.469-0.56-0.328-0.047-0.568-0.524-0.568-0.839v-0.036c0-0.066 0.047-0.113 0.11-0.113h0.447v-0.008c0-0.074 0.061-0.132 0.132-0.132h1.159c0.074 0 0.132 0.061 0.132 0.132v0.008zM22.131 26.266c0.003 0.234 0.179 0.599 0.392 0.673v-0.673h-0.392zM23.182 28.26h0.138v-0.563c-0.022 0.003-0.047 0.003-0.069 0.003s-0.047 0-0.069-0.003v0.563zM23.251 27.549c0.309 0 0.56-0.251 0.56-0.56v-0.863h-1.12v0.863c0 0.309 0.251 0.56 0.56 0.56zM23.979 26.266v0.673c0.212-0.074 0.389-0.439 0.392-0.673h-0.392zM12.864 30.38l0.008 0.523 0.129 0.129c0.007 0.007 0.007 0.018 0 0.025l-0.209 0.215c-0.007 0.007-0.018 0.007-0.025 0l-0.215-0.208c-0.007-0.007-0.007-0.018-0-0.025l0.125-0.129-0.007-0.434-0.284 0.132 0.011 0.713c0.006 0.346-0.269 0.629-0.615 0.635l-0.837 0.013c-0.346 0.006-0.629-0.269-0.635-0.615l-0.011-0.727-0.494-0.208c-0.043-0.017-0.072-0.059-0.072-0.105s0.027-0.089 0.069-0.107l1.483-0.666c0.035-0.011 0.074-0.012 0.109-0.002l0.011 0.003 1.468 0.62c0.053 0.024 0.086 0.083 0.066 0.144-0.010 0.032-0.038 0.057-0.066 0.072l-0.011 0.004zM11.784 31.761c0.237-0.004 0.428-0.201 0.424-0.438l-0.010-0.632-0.775 0.355c-0.018 0.004-0.039 0.008-0.056 0.008-0.021 0-0.039 0.001-0.057-0.006l-0.011-0.003-0.803-0.337 0.010 0.643c0.004 0.237 0.201 0.428 0.438 0.424l0.84-0.013zM11.364 30.863l0.975-0.446 0.298-0.142-1.298-0.548-1.294 0.582 0.242 0.099 1.077 0.456zM33.803 24.169l-0.396 0.063-0.372-2.352c-0.013-0.083-0.088-0.137-0.171-0.124l-0.439 0.069c-0.054 0.009-0.094 0.059-0.085 0.117s0.059 0.094 0.117 0.085l0.388-0.061 0.364 2.302-0.399 0.063c-0.054 0.009-0.094 0.059-0.085 0.117s0.059 0.094 0.117 0.085l0.996-0.158c0.054-0.009 0.094-0.059 0.085-0.117s-0.063-0.097-0.121-0.088zM32.932 21.122c0.093 0.067 0.113 0.197 0.046 0.29s-0.197 0.113-0.29 0.046c-0.093-0.067-0.113-0.197-0.046-0.29s0.197-0.113 0.29-0.046zM15.145 17.041l0.53 0.306c0.049 0.028 0.068 0.092 0.038 0.143s-0.095 0.067-0.143 0.038l-0.53-0.306c-0.052-0.030-0.068-0.092-0.038-0.143s0.095-0.067 0.143-0.038zM16.507 18.066l0.53 0.306c0.049 0.028 0.113 0.014 0.143-0.038s0.014-0.113-0.038-0.143l-0.53-0.306c-0.049-0.028-0.113-0.014-0.143 0.038s-0.014 0.113 0.038 0.143zM16.813 18.758l-0.53-0.306c-0.052-0.030-0.068-0.092-0.038-0.143s0.095-0.067 0.143-0.038l0.53 0.306c0.052 0.030 0.068 0.092 0.038 0.143s-0.095 0.067-0.143 0.038zM15.451 17.733l-0.53-0.306c-0.049-0.028-0.114-0.014-0.143 0.038s-0.014 0.113 0.038 0.143l0.53 0.306c0.049 0.028 0.114 0.014 0.143-0.038s0.010-0.115-0.038-0.143zM14.698 17.814l0.53 0.306c0.049 0.028 0.068 0.092 0.038 0.143s-0.095 0.067-0.143 0.038l-0.53-0.306c-0.052-0.030-0.068-0.092-0.038-0.143s0.095-0.067 0.143-0.038zM16.061 18.839l0.53 0.306c0.049 0.028 0.113 0.014 0.143-0.038s0.014-0.113-0.038-0.143l-0.53-0.306c-0.049-0.028-0.113-0.014-0.143 0.038s-0.014 0.113 0.038 0.143zM30.754 31.883l-1.989-1.388c0.059-0.084 0.484 0.109 0.977 0.445l0.127-0.182-0.012-0.008c-0.269-0.257-0.396-0.617-0.354-0.979l-0.292-0.204c-0.046-0.032-0.057-0.091-0.024-0.138s0.094-0.055 0.138-0.024l1.239 0.865c0.043 0.030 0.054 0.089 0.022 0.136s-0.094 0.055-0.138 0.024l-0.759-0.53c-0.004 0.264 0.102 0.519 0.3 0.705 0.063 0.057 0.131 0.109 0.206 0.148 0.429 0.231 0.967 0.102 1.246-0.298 0.156-0.223 0.21-0.504 0.15-0.77-0.004-0.025-0.011-0.046-0.017-0.068l-0.806 0.402c-0.049 0.026-0.108 0.032-0.16 0.013l-0.003-0.002-0.004-0.002-0-0h-0c-0.016-0.008-0.031-0.015-0.046-0.025-0.029-0.020-0.054-0.046-0.072-0.076l-0.175-0.354c-0.052-0.105-0.011-0.231 0.094-0.283l1.269-0.634c0.105-0.052 0.231-0.011 0.283 0.094l0.175 0.354c0.052 0.105 0.011 0.231-0.094 0.283l-0.282 0.139c0.005 0.018 0.010 0.037 0.015 0.056s0.010 0.037 0.015 0.056c0.074 0.319 0.010 0.657-0.178 0.927-0.337 0.484-0.982 0.636-1.498 0.363l-0.009-0.006-0.123 0.177c0.495 0.358 0.837 0.701 0.779 0.785zM30.668 29.846c0.003 0.002 0.008 0.001 0.013 0l1.262-0.63c0.007-0.004 0.010-0.015 0.006-0.021l-0.175-0.354c-0.004-0.007-0.014-0.010-0.021-0.006l-1.262 0.63c-0.007 0.004-0.010 0.014-0.006 0.021l0.175 0.354 0.009 0.006zM27.777 16.666c-0.014-0.031-0.037-0.054-0.070-0.067l-0.448-0.174c-0.031-0.017-0.067-0.021-0.096-0.012-0.032 0.011-0.061 0.037-0.073 0.073l-0.19 0.482-1.734 0.762c-0.065 0.029-0.095 0.099-0.065 0.167l0.935 2.127c0.029 0.065 0.099 0.095 0.167 0.065l2.124-0.934c0.065-0.029 0.095-0.099 0.065-0.167l-0.784-1.782 0.173-0.444c0.010-0.031 0.009-0.065-0.005-0.096zM26.989 18.329l-0.065-0.025c-0.045-0.017-0.093 0.004-0.11 0.049s0.004 0.093 0.049 0.11l0.016 0.006-0.246 0.223-0.032-0.334 0.016 0.006c0.020 0.008 0.044 0.008 0.064-0.001s0.036-0.026 0.044-0.046c0.017-0.045-0.004-0.093-0.049-0.11l-0.065-0.025 0.455-1.169 0.377 0.145-0.454 1.171zM28.214 19.019l-2.036 0.895-0.9-2.048 1.539-0.677-0.393 1.010-0.009 0.017 0.062 0.641c0.003 0.029 0.014 0.055 0.038 0.071l0.001 0.001c0.014 0.008 0.046 0.026 0.090 0.007l0.011-0.005 0.487-0.444 0.412-1.059 0.699 1.59zM27.504 16.999l-0.377-0.145 0.101-0.261 0.379 0.147-0.103 0.258zM3.067 26.28c0.023 0.026 0.033 0.058 0.031 0.092s-0.017 0.064-0.040 0.087l-0.359 0.313-0.131 1.942c-0.005 0.074-0.064 0.123-0.135 0.118l-2.315-0.157c-0.074-0.005-0.123-0.064-0.118-0.135l0.157-2.318c0.005-0.074 0.064-0.123 0.135-0.118l1.89 0.128 0.391-0.339c0.027-0.026 0.064-0.036 0.098-0.030 0.031 0.005 0.060 0.026 0.080 0.055l0.316 0.362zM1.584 27.428l0.046 0.053 0.945-0.828-0.268-0.303-0.945 0.825 0.046 0.053c0.032 0.036 0.028 0.089-0.008 0.12-0.016 0.014-0.039 0.022-0.060 0.021s-0.043-0.012-0.057-0.029l-0.012-0.013-0.126 0.31 0.322-0.084-0.012-0.013c-0.032-0.036-0.028-0.089 0.008-0.12s0.089-0.028 0.12 0.008zM0.176 28.51l2.22 0.15 0.117-1.732-0.856 0.747-0.637 0.168-0.012-0.001c-0.048-0.003-0.068-0.034-0.077-0.047l-0.001-0.001c-0.014-0.026-0.012-0.053-0.001-0.081l0.242-0.597 0.016-0.011 0.816-0.713-1.677-0.113-0.151 2.232zM2.435 26.238l0.268 0.303 0.21-0.181-0.267-0.306-0.211 0.184zM37.571 18.584c-0.016-0.071-0.030-0.137-0.044-0.206-0.016-0.066-0.031-0.134-0.047-0.202l-0-0c-0.015-0.067-0.031-0.134-0.046-0.201-0.006-0.038-0.026-0.070-0.054-0.089s-0.062-0.027-0.097-0.019l-2.264 0.524-0.618 0.522c-0.020 0.017-0.035 0.041-0.035 0.068 0.002 0.028 0.017 0.058 0.045 0.076l0.009 0.006 0.793 0.2 2.261-0.524c0.069-0.016 0.112-0.086 0.096-0.156zM35.006 18.605l0.016 0.071c0.004 0.020 0.016 0.037 0.033 0.048s0.037 0.014 0.056 0.010c0.042-0.010 0.067-0.051 0.058-0.094l-0.026-0.118 1.594-0.369 0.125 0.565-1.589 0.372-0.027-0.122c-0.010-0.043-0.049-0.069-0.092-0.059s-0.067 0.051-0.058 0.094l0.016 0.075-0.509-0.127 0.403-0.345zM37.015 18.686l-0.126-0.569 0.401-0.091c0.010 0.043 0.019 0.087 0.029 0.13l0 0c0.020 0.087 0.039 0.173 0.057 0.258v0c0.013 0.059 0.026 0.118 0.038 0.179l-0.398 0.092z"></path>
</symbol>
<symbol id="icon-blog-img1" viewBox="0 0 46 32">
<path fill="#d6fae7" style="fill: var(--color2, #d6fae7)" d="M0 4.444c0-0.982 0.796-1.778 1.778-1.778h42.556c0.982 0 1.778 0.796 1.778 1.778v27.556h-44.333c-0.982 0-1.778-0.796-1.778-1.778v-25.778z"></path>
<path fill="#000" style="fill: var(--color3, #000)" d="M9.667 0h36.444v17.778h-36.444v-17.778z"></path>
</symbol>
<symbol id="icon-blog-img2" viewBox="0 0 46 32">
<path fill="#d6fae7" style="fill: var(--color2, #d6fae7)" d="M0 4.444c0-0.982 0.796-1.778 1.778-1.778h42.556c0.982 0 1.778 0.796 1.778 1.778v27.556h-44.333c-0.982 0-1.778-0.796-1.778-1.778v-25.778z"></path>
<path fill="#000" style="fill: var(--color3, #000)" d="M9.667 0h36.444v17.778h-36.444v-17.778z"></path>
</symbol>
<symbol id="icon-book" viewBox="0 0 32 32">
<path fill="#1b63f0" style="fill: var(--color4, #1b63f0)" d="M9.008 2.608h16.896c0.48 0 0.896-0.384 0.896-0.896s-0.416-0.864-0.896-0.864h-16.896c-1.952 0-3.552 1.44-3.776 3.328-0.032 0.064-0.032 0.16-0.032 0.256v23.936c0 1.536 1.248 2.784 2.784 2.784h17.312c0.64 0 1.184-0.544 1.184-1.184v-22.048c0-0.64-0.544-1.184-1.184-1.184h-16.288c-1.12 0-2.080-0.96-2.080-2.080s0.96-2.048 2.080-2.048zM9.008 8.496h15.712v20.896h-16.736c-0.576 0-1.024-0.448-1.024-1.024v-20.48c0.576 0.384 1.28 0.608 2.048 0.608z"></path>
<path fill="#1b63f0" style="fill: var(--color4, #1b63f0)" d="M20.048 25.776h-8.128c-0.48 0-0.896 0.384-0.896 0.896s0.384 0.896 0.896 0.896h8.096c0.48 0 0.896-0.384 0.896-0.896s-0.384-0.896-0.864-0.896z"></path>
<path fill="#1b63f0" style="fill: var(--color4, #1b63f0)" d="M11.088 14.16h9.76c0.352 0 0.64-0.288 0.64-0.64v-1.92c0-0.352-0.288-0.64-0.64-0.64h-9.76c-0.352 0-0.64 0.288-0.64 0.64v1.92c0 0.352 0.288 0.64 0.64 0.64z"></path>
</symbol>
<symbol id="icon-book-open" viewBox="0 0 32 32">
<path fill="none" stroke="#fff" style="stroke: var(--color5, #fff)" stroke-linejoin="round" stroke-linecap="round" stroke-miterlimit="4" stroke-width="2.6667" d="M2.667 4h8c1.415 0 2.771 0.562 3.771 1.562s1.562 2.357 1.562 3.771v18.667c0-1.061-0.421-2.078-1.172-2.828s-1.768-1.172-2.828-1.172h-9.333v-20z"></path>
<path fill="none" stroke="#fff" style="stroke: var(--color5, #fff)" stroke-linejoin="round" stroke-linecap="round" stroke-miterlimit="4" stroke-width="2.6667" d="M29.333 4h-8c-1.415 0-2.771 0.562-3.771 1.562s-1.562 2.357-1.562 3.771v18.667c0-1.061 0.421-2.078 1.172-2.828s1.768-1.172 2.828-1.172h9.333v-20z"></path>
</symbol>
<symbol id="icon-calendar" viewBox="0 0 32 32">
<path fill="none" stroke="#838383" style="stroke: var(--color6, #838383)" stroke-linejoin="round" stroke-linecap="round" stroke-miterlimit="4" stroke-width="2.4" d="M25.333 5.333h-18.667c-1.473 0-2.667 1.194-2.667 2.667v18.667c0 1.473 1.194 2.667 2.667 2.667h18.667c1.473 0 2.667-1.194 2.667-2.667v-18.667c0-1.473-1.194-2.667-2.667-2.667z"></path>
<path fill="none" stroke="#838383" style="stroke: var(--color6, #838383)" stroke-linejoin="round" stroke-linecap="round" stroke-miterlimit="4" stroke-width="2.4" d="M21.333 2.667v5.333"></path>
<path fill="none" stroke="#838383" style="stroke: var(--color6, #838383)" stroke-linejoin="round" stroke-linecap="round" stroke-miterlimit="4" stroke-width="2.4" d="M10.667 2.667v5.333"></path>
<path fill="none" stroke="#838383" style="stroke: var(--color6, #838383)" stroke-linejoin="round" stroke-linecap="round" stroke-miterlimit="4" stroke-width="2.4" d="M4 13.333h24"></path>
</symbol>
<symbol id="icon-case" viewBox="0 0 32 32">
<path fill="none" stroke="#fff" style="stroke: var(--color5, #fff)" stroke-linejoin="round" stroke-linecap="round" stroke-miterlimit="4" stroke-width="2.6667" d="M26.667 9.333h-21.333c-1.473 0-2.667 1.194-2.667 2.667v13.333c0 1.473 1.194 2.667 2.667 2.667h21.333c1.473 0 2.667-1.194 2.667-2.667v-13.333c0-1.473-1.194-2.667-2.667-2.667z"></path>
<path fill="none" stroke="#fff" style="stroke: var(--color5, #fff)" stroke-linejoin="round" stroke-linecap="round" stroke-miterlimit="4" stroke-width="2.6667" d="M21.333 28v-21.333c0-0.707-0.281-1.386-0.781-1.886s-1.178-0.781-1.886-0.781h-5.333c-0.707 0-1.386 0.281-1.886 0.781s-0.781 1.178-0.781 1.886v21.333"></path>
</symbol>
<symbol id="icon-certificate" viewBox="0 0 32 32">
<path fill="#1b63f0" style="fill: var(--color4, #1b63f0)" d="M29.705 18.096h-3.584v-13.408c0-2.080-1.696-3.808-3.776-3.808h-0.032c-0.128 0-0.288 0-0.416 0h-15.456c-3.104 0-5.664 2.528-5.664 5.664v2.112c0 0.896 0.736 1.632 1.632 1.632h3.136v14.624c0 1.696 1.376 3.104 3.104 3.104h3.808v2.048c0 0.384 0.224 0.768 0.576 0.928 0.16 0.096 0.32 0.128 0.512 0.128s0.416-0.064 0.576-0.192l2.24-1.504 2.24 1.504c0.32 0.224 0.736 0.224 1.088 0.064 0.352-0.192 0.576-0.544 0.576-0.928v-2.080c0.064 0.032 0.16 0.032 0.224 0.032h7.392c0.128 0 0.224 0 0.32-0.032h0.064c0.064 0 0.16-0.032 0.256-0.032 0.032 0 0.064 0 0.064 0 0.032 0 0.064 0 0.064-0.032 0.064 0 0.096-0.032 0.16-0.032 0.032 0 0.096-0.032 0.128-0.032s0.064 0 0.064-0.032c0.096-0.032 0.192-0.064 0.256-0.096 0.032 0 0.064-0.032 0.064-0.032 0.032 0 0.032-0.032 0.064-0.032 0.096-0.032 0.16-0.096 0.256-0.128 0.064-0.032 0.16-0.096 0.224-0.16 0 0 0.032 0 0.032-0.032l0.064-0.064c0.064-0.064 0.128-0.096 0.192-0.16 0.096-0.096 0.224-0.192 0.288-0.32 0.064-0.064 0.16-0.192 0.224-0.32 0-0.032 0.032-0.032 0.032-0.064s0.032-0.032 0.032-0.064c0-0.032 0.032-0.032 0.032-0.064 0.032-0.064 0.064-0.096 0.096-0.16s0.064-0.128 0.096-0.192c0-0.032 0.032-0.064 0.032-0.096 0.064-0.192 0.128-0.384 0.16-0.576 0.032-0.224 0.064-0.448 0.064-0.704v-4.832c0.128-0.896-0.608-1.632-1.504-1.632zM2.537 6.512c0-2.144 1.76-3.904 3.904-3.904h12.32c-0.448 0.64-0.704 1.44-0.704 2.272v3.584h-15.52v-1.952zM16.329 23.76c-1.888 0-3.424-1.536-3.424-3.424s1.536-3.392 3.424-3.392c1.888 0 3.424 1.536 3.424 3.424s-1.536 3.392-3.424 3.392zM16.329 27.248l-2.144 1.408v-3.584c0.64 0.288 1.376 0.48 2.144 0.48s1.472-0.16 2.144-0.48v3.616l-2.144-1.44zM20.233 26.224v-2.464c0.8-0.896 1.28-2.080 1.28-3.392 0-2.848-2.304-5.184-5.184-5.184-2.848 0-5.184 2.304-5.184 5.184 0 1.28 0.48 2.464 1.28 3.392v2.432h-3.808c-0.736 0-1.344-0.608-1.344-1.344v-14.624h10.88c0.896 0 1.632-0.736 1.632-1.632v-3.68c0-1.184 0.928-2.208 2.112-2.272h0.416c1.12 0 2.048 0.928 2.048 2.048v19.808c0 0.608 0.16 1.216 0.448 1.728h-4.352c-0.096-0.032-0.16-0.032-0.224 0zM29.513 24.816c-0.032 0.096-0.064 0.224-0.096 0.32-0.032 0.064-0.064 0.096-0.064 0.16l-0.064 0.096c-0.032 0.032-0.064 0.096-0.096 0.128l-0.032 0.032c-0.032 0.032-0.064 0.096-0.128 0.128-0.032 0.032-0.064 0.064-0.128 0.096l-0.032 0.032c-0.096 0.064-0.192 0.128-0.288 0.16-0.032 0.032-0.064 0.032-0.096 0.032s-0.064 0.032-0.096 0.032l-0.064 0.032c-0.032 0-0.096 0.032-0.128 0.032h-0.032c-0.032 0-0.096 0.032-0.128 0.032h-0.064c-0.064 0-0.096 0-0.16 0-0.96 0-1.728-0.768-1.728-1.728v-4.544h3.424c0 0 0.032 4.864 0 4.96z"></path>
</symbol>
<symbol id="icon-choose-img" viewBox="0 0 24 32">
<path fill="#000" style="fill: var(--color3, #000)" d="M0.582 0h22.473c0.321 0 0.582 0.261 0.582 0.582v30.836c0 0.321-0.261 0.582-0.582 0.582h-22.473c-0.321 0-0.582-0.261-0.582-0.582v-30.836c0-0.321 0.261-0.582 0.582-0.582z"></path>
<path fill="#000" style="fill: var(--color3, #000)" opacity="0.6" d="M0.582 0h22.473c0.321 0 0.582 0.261 0.582 0.582v30.836c0 0.321-0.261 0.582-0.582 0.582h-22.473c-0.321 0-0.582-0.261-0.582-0.582v-30.836c0-0.321 0.261-0.582 0.582-0.582z"></path>
</symbol>
<symbol id="icon-clock" viewBox="0 0 32 32">
<path fill="none" stroke="#838383" style="stroke: var(--color6, #838383)" stroke-linejoin="round" stroke-linecap="round" stroke-miterlimit="4" stroke-width="2.4" d="M16 29.333c7.364 0 13.333-5.97 13.333-13.333s-5.97-13.333-13.333-13.333c-7.364 0-13.333 5.97-13.333 13.333s5.97 13.333 13.333 13.333z"></path>
<path fill="none" stroke="#838383" style="stroke: var(--color6, #838383)" stroke-linejoin="round" stroke-linecap="round" stroke-miterlimit="4" stroke-width="2.4" d="M16 8v8l5.333 2.667"></path>
</symbol>
<symbol id="icon-comment" viewBox="0 0 32 32">
<path fill="none" stroke="#fff" style="stroke: var(--color5, #fff)" stroke-linejoin="round" stroke-linecap="round" stroke-miterlimit="4" stroke-width="2.6667" d="M28 20c0 0.707-0.281 1.385-0.781 1.886s-1.178 0.781-1.886 0.781h-16l-5.333 5.333v-21.333c0-0.707 0.281-1.386 0.781-1.886s1.178-0.781 1.886-0.781h18.667c0.707 0 1.385 0.281 1.886 0.781s0.781 1.178 0.781 1.886v13.333z"></path>
</symbol>
<symbol id="icon-customers-feedback-img" viewBox="0 0 40 32">
<path fill="#3f4c9a" style="fill: var(--color7, #3f4c9a)" d="M13.006 14.772c1.548 0.681 2.756 1.703 3.623 3.066s1.301 2.973 1.301 4.831c0 2.663-0.836 4.831-2.508 6.503-1.672 1.61-3.809 2.415-6.41 2.415s-4.769-0.836-6.503-2.508c-1.672-1.672-2.508-3.809-2.508-6.41 0-1.239 0.155-2.477 0.465-3.716s0.991-3.097 2.044-5.574l5.388-13.378h9.197l-4.088 14.772zM34.932 14.772c1.548 0.681 2.756 1.703 3.623 3.066s1.301 2.973 1.301 4.831c0 2.663-0.836 4.831-2.508 6.503-1.672 1.61-3.809 2.415-6.41 2.415s-4.769-0.836-6.503-2.508c-1.672-1.672-2.508-3.809-2.508-6.41 0-1.239 0.155-2.477 0.465-3.716s0.991-3.097 2.044-5.574l5.388-13.378h9.197l-4.088 14.772z"></path>
</symbol>
<symbol id="icon-customers-scroll" viewBox="0 0 204 32">
<path fill="#bad1ff" style="fill: var(--color8, #bad1ff)" d="M29.091 16.291c0 8.033-6.512 14.545-14.545 14.545s-14.545-6.512-14.545-14.545c0-8.033 6.512-14.545 14.545-14.545s14.545 6.512 14.545 14.545z"></path>
<path fill="#bad1ff" style="fill: var(--color8, #bad1ff)" d="M72.727 16.291c0 8.033-6.512 14.545-14.545 14.545s-14.545-6.512-14.545-14.545c0-8.033 6.512-14.545 14.545-14.545s14.545 6.512 14.545 14.545z"></path>
<path fill="#1b63f0" style="fill: var(--color4, #1b63f0)" d="M116.364 16.291c0 8.033-6.512 14.545-14.545 14.545s-14.545-6.512-14.545-14.545c0-8.033 6.512-14.545 14.545-14.545s14.545 6.512 14.545 14.545z"></path>
<path fill="#bad1ff" style="fill: var(--color8, #bad1ff)" d="M160 16.291c0 8.033-6.512 14.545-14.545 14.545s-14.545-6.512-14.545-14.545c0-8.033 6.512-14.545 14.545-14.545s14.545 6.512 14.545 14.545z"></path>
<path fill="#bad1ff" style="fill: var(--color8, #bad1ff)" d="M203.636 16.291c0 8.033-6.512 14.545-14.545 14.545s-14.545-6.512-14.545-14.545c0-8.033 6.512-14.545 14.545-14.545s14.545 6.512 14.545 14.545z"></path>
</symbol>
<symbol id="icon-dot" viewBox="0 0 32 32">
<path fill="#fde7e6" style="fill: var(--color9, #fde7e6)" d="M21.333 16c0 2.946-2.388 5.333-5.333 5.333s-5.333-2.388-5.333-5.333c0-2.946 2.388-5.333 5.333-5.333s5.333 2.388 5.333 5.333z"></path>
</symbol>
<symbol id="icon-facebook" viewBox="0 0 32 32">
<path stroke-linejoin="round" stroke-linecap="round" stroke-miterlimit="4" stroke-width="2.6667" d="M24 2.667h-4c-1.768 0-3.464 0.702-4.714 1.953s-1.953 2.946-1.953 4.714v4h-4v5.333h4v10.667h5.333v-10.667h4l1.333-5.333h-5.333v-4c0-0.354 0.141-0.693 0.391-0.943s0.589-0.391 0.943-0.391h4v-5.333z"></path>
</symbol>
<symbol id="icon-featured" viewBox="0 0 28 32">
<path fill="#000" style="fill: var(--color3, #000)" d="M0.674 0h26.274c0.372 0 0.674 0.302 0.674 0.674v30.653c0 0.372-0.302 0.674-0.674 0.674h-26.274c-0.372 0-0.674-0.302-0.674-0.674v-30.653c0-0.372 0.302-0.674 0.674-0.674z"></path>
<path fill="#000" style="fill: var(--color3, #000)" opacity="0.8" d="M2.021 18.863h23.579v13.137h-23.579v-13.137z"></path>
<path fill="#fff" style="fill: var(--color5, #fff)" d="M4.76 21.457h0.175v0.943h-0.175v-0.943zM5.582 21.672c0.091 0 0.163 0.027 0.218 0.079s0.082 0.132 0.082 0.236v0.412h-0.168v-0.391c0-0.063-0.015-0.11-0.044-0.141s-0.072-0.049-0.127-0.049c-0.062 0-0.111 0.019-0.147 0.057s-0.054 0.090-0.054 0.16v0.364h-0.168v-0.72h0.16v0.093c0.028-0.033 0.063-0.058 0.105-0.075s0.090-0.026 0.143-0.026zM6.529 22.361c-0.020 0.016-0.044 0.028-0.073 0.036s-0.057 0.012-0.089 0.012c-0.079 0-0.14-0.021-0.183-0.062s-0.065-0.101-0.065-0.181v-0.346h-0.119v-0.135h0.119v-0.164h0.168v0.164h0.193v0.135h-0.193v0.342c0 0.035 0.009 0.062 0.026 0.081s0.042 0.027 0.074 0.027c0.038 0 0.069-0.010 0.094-0.030l0.047 0.12zM7.32 22.044c0 0.012-0.001 0.028-0.003 0.050h-0.565c0.010 0.053 0.035 0.095 0.077 0.127s0.094 0.046 0.156 0.046c0.079 0 0.144-0.026 0.195-0.078l0.090 0.104c-0.032 0.039-0.073 0.068-0.123 0.088s-0.105 0.030-0.167 0.030c-0.079 0-0.149-0.016-0.209-0.047s-0.107-0.075-0.14-0.131c-0.032-0.057-0.048-0.12-0.048-0.191s0.016-0.133 0.047-0.189c0.032-0.057 0.077-0.101 0.133-0.132s0.12-0.047 0.191-0.047c0.070 0 0.133 0.016 0.187 0.047s0.099 0.074 0.129 0.131c0.031 0.056 0.047 0.12 0.047 0.194zM6.956 21.807c-0.054 0-0.1 0.016-0.137 0.049s-0.059 0.074-0.067 0.127h0.408c-0.007-0.052-0.029-0.094-0.066-0.127s-0.083-0.049-0.137-0.049zM7.642 21.786c0.048-0.075 0.134-0.113 0.256-0.113v0.16c-0.014-0.003-0.027-0.004-0.039-0.004-0.066 0-0.117 0.019-0.154 0.058s-0.055 0.093-0.055 0.164v0.349h-0.168v-0.72h0.16v0.105zM8.449 21.672c0.091 0 0.163 0.027 0.218 0.079s0.082 0.132 0.082 0.236v0.412h-0.168v-0.391c0-0.063-0.015-0.11-0.044-0.141s-0.072-0.049-0.127-0.049c-0.062 0-0.111 0.019-0.147 0.057s-0.054 0.090-0.054 0.16v0.364h-0.168v-0.72h0.16v0.093c0.028-0.033 0.063-0.058 0.105-0.075s0.090-0.026 0.143-0.026zM9.238 21.672c0.106 0 0.187 0.026 0.243 0.077s0.085 0.127 0.085 0.229v0.422h-0.159v-0.088c-0.021 0.031-0.050 0.056-0.089 0.073s-0.084 0.024-0.137 0.024-0.101-0.009-0.141-0.027c-0.040-0.019-0.072-0.044-0.094-0.077s-0.032-0.070-0.032-0.112c0-0.065 0.024-0.116 0.071-0.155s0.124-0.059 0.228-0.059h0.186v-0.011c0-0.050-0.015-0.089-0.046-0.116s-0.074-0.040-0.133-0.040c-0.040 0-0.080 0.006-0.12 0.019s-0.071 0.030-0.098 0.053l-0.066-0.123c0.038-0.029 0.083-0.051 0.136-0.066s0.109-0.023 0.168-0.023zM9.215 22.287c0.042 0 0.079-0.009 0.112-0.028s0.057-0.048 0.070-0.084v-0.084h-0.174c-0.097 0-0.146 0.032-0.146 0.096 0 0.031 0.012 0.055 0.036 0.073s0.058 0.027 0.101 0.027zM10.214 22.361c-0.020 0.016-0.044 0.028-0.073 0.036s-0.058 0.012-0.089 0.012c-0.079 0-0.14-0.021-0.183-0.062s-0.065-0.101-0.065-0.181v-0.346h-0.119v-0.135h0.119v-0.164h0.168v0.164h0.193v0.135h-0.193v0.342c0 0.035 0.008 0.062 0.026 0.081s0.042 0.027 0.074 0.027c0.038 0 0.069-0.010 0.094-0.030l0.047 0.12zM10.353 21.68h0.168v0.72h-0.168v-0.72zM10.437 21.562c-0.031 0-0.056-0.009-0.077-0.028s-0.031-0.044-0.031-0.073 0.010-0.053 0.031-0.071c0.021-0.020 0.046-0.030 0.077-0.030s0.056 0.009 0.077 0.028c0.021 0.018 0.031 0.041 0.031 0.069 0 0.030-0.010 0.055-0.031 0.075s-0.045 0.030-0.077 0.030zM11.065 22.409c-0.073 0-0.138-0.016-0.197-0.047s-0.104-0.075-0.137-0.131c-0.032-0.057-0.049-0.12-0.049-0.191s0.016-0.134 0.049-0.19c0.033-0.056 0.079-0.099 0.137-0.131s0.124-0.047 0.197-0.047c0.074 0 0.14 0.016 0.198 0.047s0.104 0.075 0.136 0.131c0.033 0.056 0.050 0.119 0.050 0.19s-0.017 0.135-0.050 0.191c-0.032 0.056-0.078 0.099-0.136 0.131s-0.124 0.047-0.198 0.047zM11.065 22.265c0.062 0 0.113-0.021 0.154-0.062s0.061-0.096 0.061-0.163c0-0.067-0.020-0.122-0.061-0.163s-0.092-0.062-0.154-0.062c-0.062 0-0.113 0.021-0.154 0.062s-0.059 0.096-0.059 0.163 0.020 0.122 0.059 0.163c0.040 0.041 0.092 0.062 0.154 0.062zM12.019 21.672c0.091 0 0.163 0.027 0.218 0.079s0.082 0.132 0.082 0.236v0.412h-0.168v-0.391c0-0.063-0.015-0.11-0.044-0.141s-0.072-0.049-0.127-0.049c-0.062 0-0.111 0.019-0.147 0.057s-0.054 0.090-0.054 0.16v0.364h-0.168v-0.72h0.16v0.093c0.028-0.033 0.063-0.058 0.105-0.075s0.090-0.026 0.143-0.026zM12.808 21.672c0.106 0 0.187 0.026 0.243 0.077s0.085 0.127 0.085 0.229v0.422h-0.159v-0.088c-0.021 0.031-0.050 0.056-0.089 0.073s-0.084 0.024-0.137 0.024-0.101-0.009-0.141-0.027c-0.040-0.019-0.072-0.044-0.094-0.077s-0.032-0.070-0.032-0.112c0-0.065 0.024-0.116 0.071-0.155s0.124-0.059 0.228-0.059h0.186v-0.011c0-0.050-0.015-0.089-0.046-0.116s-0.074-0.040-0.133-0.040c-0.040 0-0.080 0.006-0.12 0.019s-0.071 0.030-0.098 0.053l-0.066-0.123c0.038-0.029 0.083-0.051 0.136-0.066s0.109-0.023 0.168-0.023zM12.785 22.287c0.042 0 0.079-0.009 0.112-0.028s0.057-0.048 0.070-0.084v-0.084h-0.174c-0.097 0-0.146 0.032-0.146 0.096 0 0.031 0.012 0.055 0.036 0.073s0.058 0.027 0.101 0.027zM13.351 21.4h0.168v1h-0.168v-1zM14.566 22.413c-0.095 0-0.181-0.021-0.259-0.062-0.076-0.042-0.136-0.1-0.181-0.174s-0.065-0.157-0.065-0.249 0.022-0.176 0.066-0.249c0.044-0.074 0.104-0.131 0.181-0.172s0.164-0.063 0.259-0.063c0.077 0 0.148 0.013 0.212 0.040s0.118 0.066 0.162 0.117l-0.113 0.106c-0.068-0.074-0.152-0.11-0.252-0.11-0.065 0-0.123 0.014-0.174 0.043s-0.091 0.067-0.12 0.117c-0.029 0.050-0.043 0.107-0.043 0.171s0.014 0.121 0.043 0.171c0.029 0.050 0.069 0.090 0.12 0.119s0.109 0.042 0.174 0.042c0.1 0 0.184-0.037 0.252-0.112l0.113 0.108c-0.044 0.051-0.098 0.090-0.163 0.117s-0.134 0.040-0.212 0.040zM15.389 22.409c-0.073 0-0.138-0.016-0.197-0.047s-0.104-0.075-0.137-0.131c-0.032-0.057-0.049-0.12-0.049-0.191s0.016-0.134 0.049-0.19c0.033-0.056 0.079-0.099 0.137-0.131s0.124-0.047 0.197-0.047c0.074 0 0.14 0.016 0.198 0.047s0.104 0.075 0.136 0.131c0.033 0.056 0.050 0.119 0.050 0.19s-0.017 0.135-0.050 0.191c-0.032 0.056-0.078 0.099-0.136 0.131s-0.124 0.047-0.198 0.047zM15.389 22.265c0.062 0 0.113-0.021 0.154-0.062s0.061-0.096 0.061-0.163c0-0.067-0.020-0.122-0.061-0.163s-0.092-0.062-0.154-0.062c-0.062 0-0.113 0.021-0.154 0.062s-0.059 0.096-0.059 0.163 0.020 0.122 0.059 0.163c0.040 0.041 0.092 0.062 0.154 0.062zM16.342 21.672c0.091 0 0.164 0.027 0.218 0.079s0.082 0.132 0.082 0.236v0.412h-0.168v-0.391c0-0.063-0.015-0.11-0.044-0.141s-0.072-0.049-0.127-0.049c-0.062 0-0.111 0.019-0.147 0.057s-0.054 0.090-0.054 0.16v0.364h-0.168v-0.72h0.16v0.093c0.028-0.033 0.063-0.058 0.105-0.075s0.090-0.026 0.143-0.026zM17.149 21.527c-0.071 0-0.106 0.039-0.106 0.116v0.043h0.198v0.135h-0.193v0.579h-0.168v-0.579h-0.119v-0.135h0.119v-0.046c0-0.077 0.022-0.138 0.067-0.182s0.108-0.067 0.19-0.067c0.065 0 0.115 0.013 0.152 0.039l-0.047 0.127c-0.029-0.020-0.060-0.030-0.093-0.030zM18.020 22.044c0 0.012-0.001 0.028-0.003 0.050h-0.565c0.010 0.053 0.035 0.095 0.077 0.127s0.094 0.046 0.156 0.046c0.079 0 0.144-0.026 0.195-0.078l0.090 0.104c-0.032 0.039-0.073 0.068-0.123 0.088s-0.105 0.030-0.167 0.030c-0.079 0-0.149-0.016-0.209-0.047s-0.107-0.075-0.14-0.131c-0.032-0.057-0.049-0.12-0.049-0.191s0.016-0.133 0.047-0.189c0.032-0.057 0.077-0.101 0.133-0.132s0.12-0.047 0.191-0.047c0.070 0 0.132 0.016 0.187 0.047s0.099 0.074 0.129 0.131c0.031 0.056 0.047 0.12 0.047 0.194zM17.656 21.807c-0.054 0-0.1 0.016-0.137 0.049s-0.059 0.074-0.067 0.127h0.408c-0.007-0.052-0.029-0.094-0.066-0.127s-0.083-0.049-0.137-0.049zM18.342 21.786c0.049-0.075 0.134-0.113 0.256-0.113v0.16c-0.014-0.003-0.027-0.004-0.039-0.004-0.066 0-0.117 0.019-0.154 0.058s-0.055 0.093-0.055 0.164v0.349h-0.168v-0.72h0.16v0.105zM19.411 22.044c0 0.012-0.001 0.028-0.003 0.050h-0.565c0.010 0.053 0.036 0.095 0.077 0.127s0.094 0.046 0.156 0.046c0.079 0 0.144-0.026 0.195-0.078l0.090 0.104c-0.032 0.039-0.073 0.068-0.123 0.088s-0.105 0.030-0.167 0.030c-0.079 0-0.149-0.016-0.209-0.047s-0.107-0.075-0.14-0.131c-0.032-0.057-0.049-0.12-0.049-0.191s0.016-0.133 0.047-0.189c0.032-0.057 0.077-0.101 0.133-0.132s0.12-0.047 0.191-0.047c0.070 0 0.133 0.016 0.187 0.047 0.056 0.031 0.099 0.074 0.129 0.131 0.032 0.056 0.047 0.12 0.047 0.194zM19.047 21.807c-0.054 0-0.1 0.016-0.137 0.049s-0.059 0.074-0.067 0.127h0.408c-0.007-0.052-0.029-0.094-0.066-0.127s-0.083-0.049-0.137-0.049zM19.981 21.672c0.091 0 0.164 0.027 0.218 0.079s0.082 0.132 0.082 0.236v0.412h-0.168v-0.391c0-0.063-0.015-0.11-0.044-0.141s-0.072-0.049-0.127-0.049c-0.062 0-0.111 0.019-0.147 0.057s-0.054 0.090-0.054 0.16v0.364h-0.168v-0.72h0.16v0.093c0.028-0.033 0.063-0.058 0.105-0.075s0.090-0.026 0.143-0.026zM20.831 22.409c-0.075 0-0.141-0.016-0.201-0.047s-0.106-0.075-0.139-0.131c-0.033-0.057-0.050-0.12-0.050-0.191s0.017-0.134 0.050-0.19c0.033-0.056 0.079-0.099 0.137-0.131s0.127-0.047 0.202-0.047c0.071 0 0.133 0.014 0.186 0.043s0.094 0.070 0.121 0.124l-0.129 0.075c-0.021-0.033-0.047-0.058-0.078-0.074s-0.064-0.026-0.101-0.026c-0.063 0-0.115 0.021-0.156 0.062s-0.062 0.095-0.062 0.163 0.020 0.123 0.061 0.164c0.041 0.040 0.094 0.061 0.158 0.061 0.037 0 0.070-0.008 0.101-0.024s0.057-0.042 0.078-0.075l0.129 0.075c-0.028 0.054-0.069 0.096-0.123 0.125s-0.115 0.043-0.185 0.043zM21.95 22.044c0 0.012-0.001 0.028-0.003 0.050h-0.565c0.010 0.053 0.035 0.095 0.077 0.127s0.094 0.046 0.156 0.046c0.079 0 0.144-0.026 0.195-0.078l0.090 0.104c-0.032 0.039-0.073 0.068-0.123 0.088s-0.105 0.030-0.167 0.030c-0.079 0-0.149-0.016-0.209-0.047s-0.107-0.075-0.14-0.131c-0.032-0.057-0.049-0.12-0.049-0.191s0.016-0.133 0.047-0.189c0.032-0.057 0.077-0.101 0.133-0.132s0.12-0.047 0.191-0.047c0.070 0 0.132 0.016 0.187 0.047s0.099 0.074 0.129 0.131c0.031 0.056 0.047 0.12 0.047 0.194zM21.586 21.807c-0.054 0-0.1 0.016-0.137 0.049s-0.059 0.074-0.067 0.127h0.408c-0.007-0.052-0.029-0.094-0.066-0.127s-0.083-0.049-0.137-0.049zM22.166 22.409c-0.031 0-0.057-0.010-0.078-0.031s-0.032-0.049-0.032-0.081c0-0.033 0.010-0.060 0.031-0.081s0.048-0.031 0.079-0.031c0.031 0 0.057 0.010 0.078 0.031s0.032 0.048 0.032 0.081c0 0.032-0.011 0.059-0.032 0.081s-0.048 0.031-0.078 0.031zM22.495 22.409c-0.031 0-0.057-0.010-0.078-0.031s-0.032-0.049-0.032-0.081c0-0.033 0.010-0.060 0.031-0.081s0.048-0.031 0.079-0.031 0.058 0.010 0.078 0.031c0.022 0.021 0.032 0.048 0.032 0.081s-0.011 0.059-0.032 0.081c-0.022 0.021-0.048 0.031-0.078 0.031zM22.824 22.409c-0.031 0-0.057-0.010-0.078-0.031s-0.032-0.049-0.032-0.081c0-0.033 0.010-0.060 0.031-0.081s0.048-0.031 0.079-0.031 0.058 0.010 0.078 0.031c0.022 0.021 0.032 0.048 0.032 0.081s-0.011 0.059-0.032 0.081c-0.022 0.021-0.048 0.031-0.078 0.031z"></path>
<path fill="#bfbfbf" style="fill: var(--color10, #bfbfbf)" d="M6.412 25.607c-0.047 0-0.091-0.010-0.131-0.031s-0.073-0.050-0.098-0.087l0.052-0.059c0.046 0.068 0.105 0.101 0.178 0.101 0.102 0 0.153-0.061 0.153-0.182v-0.5h-0.302v-0.075h0.388v0.572c0 0.086-0.020 0.152-0.061 0.196s-0.1 0.065-0.179 0.065zM7.456 24.98v0.62h-0.080v-0.113c-0.022 0.038-0.052 0.067-0.091 0.088s-0.083 0.031-0.132 0.031c-0.081 0-0.145-0.022-0.192-0.067s-0.070-0.112-0.070-0.199v-0.36h0.084v0.351c0 0.065 0.016 0.115 0.048 0.149s0.078 0.051 0.138 0.051c0.065 0 0.117-0.020 0.154-0.059s0.057-0.096 0.057-0.166v-0.325h0.084zM7.69 24.725h0.084v0.875h-0.084v-0.875zM8.528 24.98l-0.31 0.694c-0.025 0.058-0.054 0.099-0.087 0.124s-0.073 0.037-0.119 0.037c-0.030 0-0.058-0.005-0.084-0.014s-0.048-0.024-0.067-0.042l0.039-0.062c0.031 0.031 0.069 0.047 0.113 0.047 0.028 0 0.052-0.008 0.072-0.024s0.039-0.042 0.057-0.080l0.027-0.060-0.277-0.619h0.087l0.233 0.527 0.233-0.527h0.083zM9.372 25.167c0.052 0.017 0.092 0.043 0.119 0.078s0.042 0.076 0.042 0.125c0 0.048-0.013 0.090-0.039 0.126s-0.063 0.063-0.112 0.083c-0.048 0.019-0.104 0.028-0.17 0.028-0.099 0-0.177-0.021-0.233-0.064s-0.085-0.1-0.085-0.173c0-0.050 0.013-0.091 0.040-0.125s0.067-0.061 0.119-0.078c-0.042-0.017-0.075-0.040-0.097-0.071s-0.033-0.068-0.033-0.111c0-0.067 0.026-0.12 0.078-0.159s0.123-0.059 0.211-0.059c0.058 0 0.109 0.009 0.152 0.027s0.078 0.042 0.103 0.075c0.024 0.033 0.037 0.072 0.037 0.116 0 0.042-0.011 0.079-0.034 0.111s-0.055 0.054-0.098 0.071zM9.008 24.988c0 0.046 0.018 0.082 0.054 0.108s0.086 0.040 0.15 0.040 0.114-0.013 0.15-0.040c0.037-0.027 0.055-0.062 0.055-0.107 0-0.046-0.019-0.083-0.057-0.11s-0.086-0.040-0.149-0.040c-0.063 0-0.113 0.013-0.15 0.040s-0.054 0.063-0.054 0.108zM9.212 25.535c0.073 0 0.13-0.015 0.171-0.045s0.062-0.070 0.062-0.121-0.021-0.091-0.062-0.12c-0.041-0.030-0.098-0.045-0.171-0.045s-0.129 0.015-0.171 0.045c-0.041 0.029-0.061 0.069-0.061 0.12s0.020 0.093 0.061 0.123c0.041 0.029 0.098 0.044 0.171 0.044zM9.727 25.477c0.018 0 0.033 0.006 0.045 0.019s0.018 0.027 0.018 0.045c0 0.009-0.002 0.020-0.005 0.031s-0.006 0.024-0.012 0.038l-0.050 0.163h-0.057l0.040-0.171c-0.013-0.004-0.023-0.011-0.031-0.021s-0.012-0.024-0.012-0.039c0-0.018 0.006-0.033 0.018-0.045s0.027-0.019 0.045-0.019zM10.784 25.525v0.075h-0.579v-0.060l0.343-0.336c0.043-0.042 0.072-0.079 0.087-0.11s0.024-0.063 0.024-0.094c0-0.049-0.017-0.086-0.051-0.113s-0.081-0.041-0.143-0.041c-0.097 0-0.172 0.031-0.225 0.092l-0.060-0.052c0.032-0.038 0.073-0.067 0.123-0.087s0.107-0.031 0.17-0.031c0.084 0 0.15 0.020 0.199 0.060s0.074 0.094 0.074 0.163c0 0.042-0.009 0.083-0.028 0.123s-0.055 0.084-0.107 0.136l-0.281 0.276h0.454zM11.215 25.607c-0.064 0-0.121-0.017-0.171-0.051s-0.088-0.082-0.117-0.145c-0.028-0.064-0.041-0.138-0.041-0.224s0.014-0.16 0.041-0.223c0.028-0.064 0.067-0.112 0.117-0.146s0.107-0.051 0.171-0.051 0.12 0.017 0.17 0.051c0.050 0.034 0.090 0.083 0.118 0.146s0.042 0.137 0.042 0.223-0.014 0.16-0.042 0.224c-0.028 0.063-0.068 0.111-0.118 0.145s-0.106 0.051-0.17 0.051zM11.215 25.529c0.048 0 0.090-0.013 0.126-0.040s0.066-0.066 0.086-0.117 0.031-0.113 0.031-0.185c0-0.072-0.010-0.134-0.031-0.185s-0.049-0.090-0.086-0.117c-0.036-0.027-0.078-0.040-0.126-0.040s-0.090 0.013-0.127 0.040c-0.036 0.027-0.064 0.066-0.085 0.117s-0.031 0.113-0.031 0.185c0 0.072 0.010 0.134 0.031 0.185s0.049 0.090 0.085 0.117c0.037 0.027 0.079 0.040 0.127 0.040zM11.893 24.775v0.825h-0.085v-0.75h-0.195v-0.075h0.279zM12.563 25.167c0.052 0.017 0.092 0.043 0.119 0.078s0.042 0.076 0.042 0.125c0 0.048-0.013 0.090-0.039 0.126s-0.063 0.063-0.112 0.083c-0.048 0.019-0.105 0.028-0.17 0.028-0.099 0-0.177-0.021-0.233-0.064s-0.085-0.1-0.085-0.173c0-0.050 0.013-0.091 0.040-0.125s0.067-0.061 0.119-0.078c-0.042-0.017-0.075-0.040-0.097-0.071s-0.033-0.068-0.033-0.111c0-0.067 0.026-0.12 0.078-0.159s0.123-0.059 0.211-0.059c0.058 0 0.109 0.009 0.152 0.027s0.078 0.042 0.103 0.075c0.024 0.033 0.037 0.072 0.037 0.116 0 0.042-0.011 0.079-0.034 0.111s-0.055 0.054-0.098 0.071zM12.2 24.988c0 0.046 0.018 0.082 0.054 0.108s0.086 0.040 0.15 0.040 0.114-0.013 0.15-0.040c0.037-0.027 0.055-0.062 0.055-0.107 0-0.046-0.019-0.083-0.057-0.11s-0.086-0.040-0.149-0.040c-0.063 0-0.113 0.013-0.15 0.040s-0.054 0.063-0.054 0.108zM12.404 25.535c0.073 0 0.13-0.015 0.171-0.045s0.062-0.070 0.062-0.121-0.021-0.091-0.062-0.12c-0.041-0.030-0.098-0.045-0.171-0.045s-0.129 0.015-0.171 0.045c-0.041 0.029-0.061 0.069-0.061 0.12s0.020 0.093 0.061 0.123c0.041 0.029 0.098 0.044 0.171 0.044z"></path>
<path fill="#bfbfbf" style="fill: var(--color10, #bfbfbf)" d="M17.499 25.113c0.119 0 0.206 0.022 0.261 0.065s0.083 0.102 0.083 0.179c0 0.048-0.011 0.091-0.034 0.128s-0.055 0.068-0.1 0.090c-0.045 0.021-0.1 0.032-0.165 0.032-0.059 0-0.115-0.009-0.169-0.028s-0.095-0.046-0.127-0.078l0.041-0.067c0.028 0.028 0.064 0.051 0.108 0.070s0.093 0.026 0.145 0.026c0.068 0 0.121-0.015 0.158-0.046s0.057-0.072 0.057-0.123c0-0.057-0.021-0.099-0.064-0.128s-0.112-0.044-0.212-0.044h-0.176l0.042-0.414h0.452v0.075h-0.377l-0.028 0.263h0.106zM18.325 24.975c0.058 0 0.111 0.013 0.158 0.040s0.084 0.063 0.111 0.111c0.027 0.048 0.040 0.103 0.040 0.164s-0.013 0.117-0.040 0.165c-0.027 0.048-0.064 0.085-0.111 0.112s-0.099 0.039-0.158 0.039c-0.050 0-0.096-0.010-0.137-0.031s-0.073-0.052-0.099-0.092v0.345h-0.084v-0.849h0.080v0.123c0.025-0.041 0.058-0.072 0.099-0.094s0.088-0.033 0.14-0.033zM18.319 25.532c0.043 0 0.083-0.010 0.118-0.029s0.063-0.049 0.083-0.086c0.020-0.037 0.031-0.079 0.031-0.126s-0.010-0.089-0.031-0.125c-0.020-0.037-0.047-0.066-0.083-0.086s-0.075-0.031-0.118-0.031c-0.044 0-0.084 0.010-0.119 0.031s-0.062 0.049-0.083 0.086c-0.020 0.036-0.029 0.078-0.029 0.125s0.010 0.089 0.029 0.126c0.020 0.037 0.048 0.066 0.083 0.086s0.075 0.029 0.119 0.029zM19.578 24.975c0.078 0 0.139 0.022 0.183 0.067s0.067 0.111 0.067 0.198v0.36h-0.084v-0.351c0-0.064-0.016-0.114-0.047-0.147s-0.074-0.051-0.131-0.051c-0.064 0-0.115 0.020-0.152 0.060s-0.055 0.094-0.055 0.164v0.325h-0.084v-0.351c0-0.064-0.016-0.114-0.047-0.147s-0.075-0.051-0.132-0.051c-0.064 0-0.114 0.020-0.152 0.060s-0.055 0.094-0.055 0.164v0.325h-0.084v-0.62h0.080v0.113c0.022-0.038 0.053-0.067 0.092-0.087s0.084-0.031 0.136-0.031c0.052 0 0.097 0.011 0.134 0.033s0.067 0.055 0.086 0.098c0.023-0.041 0.055-0.073 0.098-0.096s0.092-0.035 0.147-0.035zM20.317 25.244h0.309v0.073h-0.309v-0.073zM21.649 24.775v0.060l-0.345 0.765h-0.092l0.34-0.75h-0.424v0.154h-0.084v-0.23h0.606zM22.105 24.975c0.058 0 0.111 0.013 0.158 0.040s0.084 0.063 0.111 0.111c0.027 0.048 0.040 0.103 0.040 0.164s-0.013 0.117-0.040 0.165c-0.027 0.048-0.064 0.085-0.111 0.112s-0.099 0.039-0.158 0.039c-0.050 0-0.096-0.010-0.137-0.031s-0.073-0.052-0.099-0.092v0.345h-0.084v-0.849h0.080v0.123c0.025-0.041 0.058-0.072 0.099-0.094s0.088-0.033 0.14-0.033zM22.099 25.532c0.043 0 0.083-0.010 0.118-0.029s0.063-0.049 0.083-0.086c0.020-0.037 0.031-0.079 0.031-0.126s-0.010-0.089-0.031-0.125c-0.020-0.037-0.047-0.066-0.083-0.086s-0.075-0.031-0.118-0.031c-0.044 0-0.084 0.010-0.119 0.031s-0.062 0.049-0.083 0.086c-0.020 0.036-0.029 0.078-0.029 0.125s0.010 0.089 0.029 0.126c0.020 0.037 0.048 0.066 0.083 0.086s0.075 0.029 0.119 0.029zM23.358 24.975c0.078 0 0.139 0.022 0.183 0.067s0.067 0.111 0.067 0.198v0.36h-0.084v-0.351c0-0.064-0.016-0.114-0.047-0.147s-0.074-0.051-0.131-0.051c-0.064 0-0.115 0.020-0.152 0.060s-0.055 0.094-0.055 0.164v0.325h-0.084v-0.351c0-0.064-0.016-0.114-0.047-0.147s-0.075-0.051-0.132-0.051c-0.064 0-0.114 0.020-0.152 0.060s-0.055 0.094-0.055 0.164v0.325h-0.084v-0.62h0.080v0.113c0.022-0.038 0.053-0.067 0.092-0.087s0.084-0.031 0.136-0.031c0.052 0 0.097 0.011 0.134 0.033s0.067 0.055 0.086 0.098c0.023-0.041 0.055-0.073 0.098-0.096s0.092-0.035 0.147-0.035z"></path>
<path fill="#bfbfbf" style="fill: var(--color10, #bfbfbf)" d="M11.456 28.133c-0.107 0-0.19-0.031-0.25-0.092s-0.090-0.15-0.090-0.268v-0.473h0.087v0.469c0 0.096 0.022 0.167 0.065 0.215s0.106 0.071 0.187 0.071c0.083 0 0.145-0.024 0.189-0.071s0.065-0.119 0.065-0.215v-0.469h0.085v0.473c0 0.117-0.030 0.206-0.090 0.268s-0.142 0.092-0.249 0.092zM12.356 27.501c0.078 0 0.14 0.023 0.185 0.068s0.070 0.11 0.070 0.197v0.36h-0.084v-0.351c0-0.064-0.016-0.114-0.048-0.147s-0.078-0.051-0.138-0.051c-0.067 0-0.12 0.020-0.159 0.060s-0.058 0.094-0.058 0.164v0.325h-0.084v-0.62h0.080v0.114c0.023-0.038 0.054-0.067 0.094-0.087s0.088-0.032 0.141-0.032zM12.838 27.506h0.084v0.62h-0.084v-0.62zM12.88 27.371c-0.017 0-0.032-0.006-0.044-0.018s-0.018-0.026-0.018-0.042c0-0.016 0.006-0.029 0.018-0.041s0.026-0.018 0.044-0.018c0.017 0 0.032 0.006 0.044 0.018s0.018 0.024 0.018 0.040c0 0.017-0.006 0.032-0.018 0.044s-0.026 0.018-0.044 0.018zM13.481 28.089c-0.016 0.014-0.035 0.025-0.059 0.033s-0.047 0.011-0.072 0.011c-0.058 0-0.103-0.016-0.134-0.047s-0.047-0.076-0.047-0.133v-0.375h-0.111v-0.071h0.111v-0.136h0.084v0.136h0.189v0.071h-0.189v0.37c0 0.037 0.009 0.065 0.027 0.085s0.046 0.028 0.080 0.028c0.017 0 0.034-0.003 0.050-0.008s0.031-0.013 0.042-0.024l0.029 0.060zM14.151 27.842h-0.519c0.005 0.064 0.029 0.117 0.074 0.157s0.101 0.059 0.17 0.059c0.038 0 0.074-0.007 0.106-0.020s0.060-0.035 0.084-0.061l0.047 0.054c-0.028 0.033-0.062 0.058-0.104 0.075s-0.086 0.026-0.136 0.026c-0.064 0-0.12-0.013-0.17-0.040s-0.087-0.065-0.114-0.113-0.041-0.102-0.041-0.163c0-0.061 0.013-0.115 0.039-0.163s0.063-0.085 0.108-0.112c0.046-0.027 0.098-0.040 0.156-0.040s0.109 0.013 0.154 0.040c0.046 0.027 0.081 0.064 0.107 0.112s0.039 0.101 0.039 0.163l-0.001 0.026zM13.852 27.573c-0.060 0-0.11 0.019-0.151 0.058s-0.063 0.087-0.068 0.149h0.44c-0.005-0.061-0.029-0.111-0.070-0.149s-0.090-0.058-0.151-0.058zM14.889 27.252v0.875h-0.080v-0.123c-0.025 0.042-0.059 0.074-0.1 0.096s-0.087 0.033-0.139 0.033c-0.058 0-0.111-0.013-0.158-0.040s-0.084-0.064-0.111-0.112c-0.027-0.048-0.040-0.103-0.040-0.164s0.013-0.116 0.040-0.164c0.027-0.048 0.064-0.085 0.111-0.111s0.1-0.040 0.158-0.040c0.050 0 0.095 0.011 0.136 0.032s0.074 0.051 0.1 0.091v-0.373h0.084zM14.576 28.058c0.043 0 0.082-0.010 0.117-0.029s0.063-0.049 0.083-0.086c0.020-0.037 0.031-0.079 0.031-0.126s-0.010-0.089-0.031-0.126c-0.020-0.037-0.047-0.065-0.083-0.085s-0.073-0.031-0.117-0.031c-0.044 0-0.084 0.010-0.119 0.031s-0.062 0.048-0.083 0.085c-0.020 0.037-0.029 0.079-0.029 0.126s0.010 0.089 0.029 0.126c0.020 0.037 0.048 0.066 0.083 0.086s0.075 0.029 0.119 0.029zM15.676 28.133c-0.061 0-0.12-0.010-0.177-0.029s-0.099-0.046-0.13-0.078l0.034-0.067c0.030 0.030 0.070 0.054 0.119 0.073s0.101 0.027 0.153 0.027c0.074 0 0.129-0.013 0.166-0.040s0.055-0.063 0.055-0.106c0-0.033-0.010-0.059-0.031-0.079s-0.044-0.035-0.073-0.045c-0.029-0.011-0.070-0.023-0.121-0.035-0.062-0.016-0.112-0.031-0.149-0.045s-0.069-0.037-0.095-0.067c-0.026-0.030-0.039-0.070-0.039-0.121 0-0.042 0.011-0.079 0.033-0.113s0.056-0.062 0.101-0.083c0.046-0.020 0.102-0.031 0.17-0.031 0.047 0 0.093 0.007 0.138 0.020s0.085 0.030 0.118 0.053l-0.029 0.070c-0.035-0.023-0.072-0.040-0.111-0.051s-0.078-0.018-0.116-0.018c-0.072 0-0.127 0.014-0.164 0.042s-0.054 0.063-0.054 0.107c0 0.033 0.010 0.060 0.029 0.080s0.046 0.035 0.075 0.046c0.031 0.010 0.072 0.022 0.123 0.034 0.060 0.015 0.109 0.030 0.146 0.045s0.070 0.036 0.095 0.066c0.026 0.029 0.039 0.069 0.039 0.119 0 0.042-0.011 0.080-0.034 0.114s-0.056 0.061-0.103 0.081c-0.046 0.020-0.103 0.029-0.171 0.029zM16.482 28.089c-0.016 0.014-0.035 0.025-0.059 0.033s-0.047 0.011-0.072 0.011c-0.058 0-0.103-0.016-0.134-0.047s-0.047-0.076-0.047-0.133v-0.375h-0.111v-0.071h0.111v-0.136h0.084v0.136h0.189v0.071h-0.189v0.37c0 0.037 0.009 0.065 0.027 0.085s0.046 0.028 0.080 0.028c0.017 0 0.034-0.003 0.050-0.008s0.031-0.013 0.042-0.024l0.029 0.060zM16.852 27.501c0.081 0 0.143 0.020 0.186 0.061s0.065 0.1 0.065 0.179v0.384h-0.080v-0.097c-0.019 0.032-0.047 0.057-0.084 0.075s-0.079 0.027-0.13 0.027c-0.069 0-0.124-0.017-0.165-0.050s-0.061-0.077-0.061-0.131c0-0.053 0.019-0.095 0.057-0.127s0.099-0.048 0.183-0.048h0.197v-0.038c0-0.053-0.015-0.094-0.045-0.121s-0.073-0.042-0.131-0.042c-0.039 0-0.077 0.007-0.113 0.020s-0.067 0.030-0.093 0.053l-0.038-0.062c0.032-0.027 0.069-0.047 0.113-0.061s0.090-0.022 0.139-0.022zM16.822 28.066c0.047 0 0.088-0.011 0.121-0.032s0.059-0.053 0.075-0.094v-0.101h-0.195c-0.106 0-0.159 0.037-0.159 0.111 0 0.036 0.014 0.065 0.041 0.086s0.066 0.031 0.116 0.031zM17.657 28.089c-0.016 0.014-0.035 0.025-0.059 0.033s-0.047 0.011-0.072 0.011c-0.058 0-0.103-0.016-0.134-0.047s-0.047-0.076-0.047-0.133v-0.375h-0.111v-0.071h0.111v-0.136h0.084v0.136h0.189v0.071h-0.189v0.37c0 0.037 0.009 0.065 0.027 0.085s0.046 0.028 0.080 0.028c0.017 0 0.034-0.003 0.050-0.008s0.031-0.013 0.042-0.024l0.029 0.060zM18.327 27.842h-0.519c0.005 0.064 0.029 0.117 0.074 0.157s0.101 0.059 0.17 0.059c0.038 0 0.074-0.007 0.106-0.020s0.060-0.035 0.084-0.061l0.047 0.054c-0.028 0.033-0.062 0.058-0.104 0.075s-0.086 0.026-0.136 0.026c-0.064 0-0.12-0.013-0.17-0.040s-0.087-0.065-0.114-0.113-0.041-0.102-0.041-0.163c0-0.061 0.013-0.115 0.039-0.163s0.063-0.085 0.108-0.112c0.046-0.027 0.098-0.040 0.156-0.040s0.109 0.013 0.154 0.040c0.046 0.027 0.081 0.064 0.107 0.112s0.039 0.101 0.039 0.163l-0.001 0.026zM18.028 27.573c-0.060 0-0.11 0.019-0.151 0.058s-0.063 0.087-0.068 0.149h0.44c-0.005-0.061-0.029-0.111-0.070-0.149s-0.090-0.058-0.151-0.058zM18.665 28.132c-0.050 0-0.099-0.007-0.145-0.021s-0.081-0.033-0.107-0.055l0.038-0.066c0.026 0.020 0.059 0.037 0.098 0.051s0.080 0.019 0.123 0.019c0.057 0 0.098-0.009 0.125-0.026s0.041-0.043 0.041-0.075c0-0.023-0.008-0.041-0.022-0.053s-0.034-0.023-0.057-0.029c-0.023-0.007-0.053-0.014-0.091-0.020-0.050-0.009-0.091-0.019-0.121-0.028s-0.057-0.027-0.079-0.051c-0.021-0.024-0.032-0.056-0.032-0.098 0-0.052 0.022-0.094 0.065-0.127s0.103-0.050 0.18-0.050c0.040 0 0.080 0.005 0.12 0.017s0.073 0.024 0.099 0.041l-0.037 0.067c-0.051-0.035-0.112-0.053-0.183-0.053-0.053 0-0.094 0.009-0.121 0.028s-0.040 0.044-0.040 0.074c0 0.024 0.008 0.042 0.022 0.057s0.035 0.025 0.058 0.032c0.023 0.006 0.054 0.013 0.094 0.020 0.050 0.009 0.089 0.019 0.119 0.028s0.055 0.026 0.077 0.048c0.021 0.023 0.032 0.054 0.032 0.094 0 0.054-0.023 0.097-0.068 0.13s-0.107 0.047-0.187 0.047z"></path>
</symbol>
<symbol id="icon-five" viewBox="0 0 32 32">
<path fill="#fff" style="fill: var(--color5, #fff)" d="M16 0c8.837 0 16 7.163 16 16s-7.163 16-16 16c-8.837 0-16-7.163-16-16s7.163-16 16-16z"></path>
<path fill="#5d74e4" style="fill: var(--color11, #5d74e4)" d="M15.629 15.309c1.263 0 2.197 0.247 2.803 0.742 0.606 0.486 0.909 1.152 0.909 1.997 0 0.538-0.132 1.024-0.397 1.459s-0.661 0.781-1.19 1.037c-0.529 0.256-1.182 0.384-1.958 0.384-0.64 0-1.259-0.090-1.856-0.269-0.597-0.188-1.101-0.444-1.51-0.768l0.704-1.293c0.333 0.273 0.73 0.491 1.19 0.653 0.469 0.154 0.952 0.23 1.446 0.23 0.589 0 1.050-0.119 1.382-0.358 0.341-0.247 0.512-0.585 0.512-1.011 0-0.461-0.183-0.806-0.55-1.037-0.358-0.239-0.977-0.358-1.856-0.358h-2.163l0.461-4.877h5.261v1.395h-3.853l-0.192 2.074h0.858z"></path>
</symbol>
<symbol id="icon-four" viewBox="0 0 32 32">
<path fill="#fff" style="fill: var(--color5, #fff)" d="M16 0c8.837 0 16 7.163 16 16s-7.163 16-16 16c-8.837 0-16-7.163-16-16s7.163-16 16-16z"></path>
<path fill="#5d74e4" style="fill: var(--color11, #5d74e4)" d="M20.207 18.765h-1.587v2.035h-1.613v-2.035h-4.915v-1.152l4.416-5.773h1.779l-4.16 5.517h2.931v-1.805h1.562v1.805h1.587v1.408z"></path>
</symbol>
<symbol id="icon-green-bg-bottom" viewBox="0 0 38 32">
<path fill="#42ae7f" style="fill: var(--color12, #42ae7f)" d="M0 5.939v-5.939h38.184v32c-25.963-10.798-38.184-8.932-38.184-26.061z"></path>
</symbol>
<symbol id="icon-green-bg-top" viewBox="0 0 36 32">
<path fill="#64be97" style="fill: var(--color13, #64be97)" d="M0 5.939v-5.939h36.319v32c-24.695-10.798-36.319-8.932-36.319-26.061z"></path>
</symbol>
<symbol id="icon-instagram" viewBox="0 0 32 32">
<path stroke-linejoin="round" stroke-linecap="round" stroke-miterlimit="4" stroke-width="2.6667" d="M22.667 2.667h-13.333c-3.682 0-6.667 2.985-6.667 6.667v13.333c0 3.682 2.985 6.667 6.667 6.667h13.333c3.682 0 6.667-2.985 6.667-6.667v-13.333c0-3.682-2.985-6.667-6.667-6.667z"></path>
<path stroke-linejoin="round" stroke-linecap="round" stroke-miterlimit="4" stroke-width="2.6667" d="M21.333 15.16c0.165 1.11-0.025 2.243-0.542 3.239s-1.334 1.803-2.336 2.307c-1.002 0.504-2.137 0.68-3.245 0.502s-2.131-0.701-2.924-1.494c-0.793-0.793-1.316-1.816-1.494-2.924s-0.003-2.243 0.502-3.245c0.504-1.002 1.312-1.819 2.308-2.336s2.129-0.706 3.239-0.542c1.132 0.168 2.18 0.695 2.989 1.504s1.337 1.857 1.504 2.989z"></path>
<path stroke-linejoin="round" stroke-linecap="round" stroke-miterlimit="4" stroke-width="2.6667" d="M23.333 8.667h0.013"></path>
</symbol>
<symbol id="icon-link" viewBox="0 0 32 32">
<path fill="none" stroke="#fff" style="stroke: var(--color5, #fff)" stroke-linejoin="round" stroke-linecap="round" stroke-miterlimit="4" stroke-width="2.6667" d="M13.333 17.333c0.573 0.765 1.303 1.399 2.142 1.857s1.767 0.731 2.72 0.799c0.953 0.068 1.911-0.069 2.806-0.403s1.709-0.857 2.385-1.533l4-4c1.214-1.257 1.886-2.941 1.871-4.689s-0.716-3.42-1.952-4.656c-1.236-1.236-2.908-1.937-4.656-1.952s-3.432 0.657-4.689 1.871l-2.293 2.28"></path>
<path fill="none" stroke="#fff" style="stroke: var(--color5, #fff)" stroke-linejoin="round" stroke-linecap="round" stroke-miterlimit="4" stroke-width="2.6667" d="M18.667 14.667c-0.573-0.765-1.303-1.399-2.142-1.857s-1.767-0.731-2.72-0.799c-0.953-0.068-1.911 0.069-2.806 0.403s-1.709 0.857-2.385 1.533l-4 4c-1.214 1.257-1.886 2.941-1.871 4.689s0.716 3.42 1.952 4.656c1.236 1.236 2.908 1.937 4.656 1.952s3.432-0.657 4.689-1.871l2.28-2.28"></path>
</symbol>
<symbol id="icon-location" viewBox="0 0 32 32">
<path fill="none" stroke="#838383" style="stroke: var(--color6, #838383)" stroke-linejoin="round" stroke-linecap="round" stroke-miterlimit="4" stroke-width="2.4" d="M28 13.333c0 9.333-12 17.333-12 17.333s-12-8-12-17.333c0-3.183 1.264-6.235 3.515-8.485s5.303-3.515 8.485-3.515c3.183 0 6.235 1.264 8.485 3.515s3.515 5.303 3.515 8.485z"></path>
<path fill="none" stroke="#838383" style="stroke: var(--color6, #838383)" stroke-linejoin="round" stroke-linecap="round" stroke-miterlimit="4" stroke-width="2.4" d="M16 17.333c2.209 0 4-1.791 4-4s-1.791-4-4-4c-2.209 0-4 1.791-4 4s1.791 4 4 4z"></path>
</symbol>
<symbol id="icon-microscope" viewBox="0 0 26 32">
<path fill="#1b63f0" style="fill: var(--color4, #1b63f0)" d="M2.882 31.421h22.798c0-0.962-4.48-1.759-10.221-1.858v-2.024c0.033 0 0.066 0 0.1 0 5.442-0.664 9.591-5.31 9.591-10.852 0-3.086-1.327-6.040-3.617-8.097-0.265-0.232-0.564-0.465-0.83-0.697l1.427-2.588c0.531-0.962 0.166-2.157-0.796-2.688l-3.252-1.792c-0.962-0.531-2.157-0.166-2.688 0.796l-6.372 11.714c-0.531 0.962-0.166 2.157 0.796 2.688l3.252 1.792c0.299 0.133 0.631 0.199 0.962 0.199 0.199 0 0.365-0.033 0.564-0.066 0.498-0.133 0.929-0.498 1.161-0.962l4.049-7.433c0.166 0.133 0.332 0.265 0.498 0.431 1.892 1.726 2.987 4.181 2.987 6.737 0 4.58-3.451 8.462-7.998 8.993-0.796 0.1-1.593 0.066-2.389-0.033-2.522-0.365-4.712-1.759-6.106-3.816h8.695c0.498 0 0.929-0.398 0.929-0.929s-0.398-0.929-0.896-0.929h-14.203c-0.498 0-0.929 0.398-0.929 0.929s0.398 0.929 0.929 0.929h3.352c1.626 3.020 4.546 5.111 7.998 5.641 0.033 0 0.1 0 0.133 0v2.091c-5.608 0.066-9.922 0.863-9.922 1.825zM14.165 16.122c-0.033 0.033-0.066 0.066-0.1 0.066s-0.066 0-0.1 0l-3.252-1.792c-0.066-0.033-0.1-0.133-0.066-0.199l6.338-11.648c0.033-0.066 0.133-0.1 0.199-0.066l3.252 1.792c0.066 0.033 0.1 0.133 0.066 0.199l-6.338 11.648z"></path>
</symbol>
<symbol id="icon-one" viewBox="0 0 32 32">
<path fill="#fff" style="fill: var(--color5, #fff)" d="M16 0c8.837 0 16 7.163 16 16s-7.163 16-16 16c-8.837 0-16-7.163-16-16s7.163-16 16-16z"></path>
<path fill="#5d74e4" style="fill: var(--color11, #5d74e4)" d="M17.223 11.84v8.96h-1.664v-7.565h-1.894v-1.395h3.558z"></path>
</symbol>
<symbol id="icon-pen-tool" viewBox="0 0 32 32">
<path fill="none" stroke="#fff" style="stroke: var(--color5, #fff)" stroke-linejoin="round" stroke-linecap="round" stroke-miterlimit="4" stroke-width="2.6667" d="M16 25.333l9.333-9.333 4 4-9.333 9.333-4-4z"></path>
<path fill="none" stroke="#fff" style="stroke: var(--color5, #fff)" stroke-linejoin="round" stroke-linecap="round" stroke-miterlimit="4" stroke-width="2.6667" d="M24 17.333l-2-10-19.333-4.667 4.667 19.333 10 2 6.667-6.667z"></path>
<path fill="none" stroke="#fff" style="stroke: var(--color5, #fff)" stroke-linejoin="round" stroke-linecap="round" stroke-miterlimit="4" stroke-width="2.6667" d="M2.667 2.667l10.115 10.115"></path>
<path fill="none" stroke="#fff" style="stroke: var(--color5, #fff)" stroke-linejoin="round" stroke-linecap="round" stroke-miterlimit="4" stroke-width="2.6667" d="M14.667 17.333c1.473 0 2.667-1.194 2.667-2.667s-1.194-2.667-2.667-2.667c-1.473 0-2.667 1.194-2.667 2.667s1.194 2.667 2.667 2.667z"></path>
</symbol>
<symbol id="icon-play-btn" viewBox="0 0 32 32">
<path fill="#64be97" style="fill: var(--color13, #64be97)" d="M16 5.333c4.909 0 8.889 3.98 8.889 8.889s-3.98 8.889-8.889 8.889c-4.909 0-8.889-3.98-8.889-8.889s3.98-8.889 8.889-8.889z"></path>
<path fill="#fff" style="fill: var(--color5, #fff)" d="M12.889 10.222l6.222 4-6.222 4v-8z"></path>
<path fill="none" stroke="#fff" style="stroke: var(--color6, #fff)" stroke-linejoin="miter" stroke-linecap="butt" stroke-miterlimit="4" stroke-width="0.8889" d="M16 5.778c4.664 0 8.444 3.781 8.444 8.444s-3.781 8.444-8.444 8.444c-4.664 0-8.444-3.781-8.444-8.444s3.781-8.444 8.444-8.444z"></path>
</symbol>
<symbol id="icon-prefer-pic1" viewBox="0 0 32 32">
<path fill="#000" style="fill: var(--color3, #000)" d="M3.24 1.755h25.587c0.298 0 0.54 0.242 0.54 0.54v25.519c0 0.298-0.242 0.54-0.54 0.54h-25.587c-0.298 0-0.54-0.242-0.54-0.54v-25.519c0-0.298 0.242-0.54 0.54-0.54z"></path>
<path fill="#6583ff" style="fill: var(--color14, #6583ff)" opacity="0.8" d="M3.24 1.755h25.587c0.298 0 0.54 0.242 0.54 0.54v25.519c0 0.298-0.242 0.54-0.54 0.54h-25.587c-0.298 0-0.54-0.242-0.54-0.54v-25.519c0-0.298 0.242-0.54 0.54-0.54z"></path>
</symbol>
<symbol id="icon-prefer-pic2" viewBox="0 0 32 32">
<path fill="#000" style="fill: var(--color3, #000)" d="M3.308 1.755h25.587c0.298 0 0.54 0.242 0.54 0.54v25.519c0 0.298-0.242 0.54-0.54 0.54h-25.587c-0.298 0-0.54-0.242-0.54-0.54v-25.519c0-0.298 0.242-0.54 0.54-0.54z"></path>
<path fill="#f0c72d" style="fill: var(--color15, #f0c72d)" opacity="0.8" d="M3.308 1.755h25.587c0.298 0 0.54 0.242 0.54 0.54v25.519c0 0.298-0.242 0.54-0.54 0.54h-25.587c-0.298 0-0.54-0.242-0.54-0.54v-25.519c0-0.298 0.242-0.54 0.54-0.54z"></path>
</symbol>
<symbol id="icon-prefer-pic3" viewBox="0 0 32 32">
<path fill="#000" style="fill: var(--color3, #000)" d="M3.24 1.755h25.587c0.298 0 0.54 0.242 0.54 0.54v25.519c0 0.298-0.242 0.54-0.54 0.54h-25.587c-0.298 0-0.54-0.242-0.54-0.54v-25.519c0-0.298 0.242-0.54 0.54-0.54z"></path>
<path fill="#9457f3" style="fill: var(--color16, #9457f3)" opacity="0.8" d="M3.24 1.755h25.587c0.298 0 0.54 0.242 0.54 0.54v25.519c0 0.298-0.242 0.54-0.54 0.54h-25.587c-0.298 0-0.54-0.242-0.54-0.54v-25.519c0-0.298 0.242-0.54 0.54-0.54z"></path>
</symbol>
<symbol id="icon-prefer-pic4" viewBox="0 0 32 32">
<path fill="#000" style="fill: var(--color3, #000)" d="M3.308 1.755h25.587c0.298 0 0.54 0.242 0.54 0.54v25.519c0 0.298-0.242 0.54-0.54 0.54h-25.587c-0.298 0-0.54-0.242-0.54-0.54v-25.519c0-0.298 0.242-0.54 0.54-0.54z"></path>
<path fill="#fe5f60" style="fill: var(--color17, #fe5f60)" opacity="0.8" d="M3.308 1.755h25.587c0.298 0 0.54 0.242 0.54 0.54v25.519c0 0.298-0.242 0.54-0.54 0.54h-25.587c-0.298 0-0.54-0.242-0.54-0.54v-25.519c0-0.298 0.242-0.54 0.54-0.54z"></path>
</symbol>
<symbol id="icon-protractor" viewBox="0 0 24 32">
<path fill="#1b63f0" style="fill: var(--color4, #1b63f0)" d="M23.399 26.005l-3.717-8.23c1.261-1.161 2.257-2.622 2.92-4.281 0.166-0.465-0.066-0.996-0.531-1.195s-0.996 0.066-1.195 0.531c-0.465 1.195-1.161 2.29-2.024 3.186l-2.522-5.608c0.398-0.73 0.597-1.527 0.597-2.389 0-2.456-1.726-4.48-4.015-4.978v-1.593c0-0.564-0.465-1.029-1.029-1.029s-1.029 0.465-1.029 1.029v1.593c-2.29 0.498-4.015 2.522-4.015 4.978 0 0.863 0.232 1.692 0.597 2.389l-2.522 5.608c-0.863-0.896-1.527-1.958-2.024-3.186-0.199-0.465-0.697-0.697-1.195-0.531-0.465 0.199-0.697 0.697-0.531 1.195 0.664 1.692 1.659 3.119 2.92 4.281l-3.717 8.23-0.133 4.447c0 0.431 0.232 0.83 0.631 1.029 0.133 0.066 0.299 0.1 0.431 0.1 0.265 0 0.531-0.1 0.73-0.299l3.219-3.053 3.518-7.799c0.996 0.265 2.024 0.431 3.086 0.431s2.091-0.166 3.086-0.431l3.518 7.799 3.219 3.053c0.199 0.199 0.465 0.299 0.73 0.299 0.133 0 0.299-0.033 0.431-0.1 0.398-0.166 0.664-0.564 0.631-1.029l-0.066-4.447zM10.224 12.798l-2.389 5.31c-0.531-0.232-1.029-0.531-1.527-0.863l2.389-5.276c0.465 0.365 0.962 0.631 1.527 0.83zM15.069 11.968l2.389 5.276c-0.465 0.332-0.996 0.631-1.527 0.863l-2.389-5.31c0.564-0.199 1.062-0.465 1.527-0.83zM11.884 4.767c1.792 0 3.252 1.46 3.252 3.252s-1.46 3.252-3.252 3.252c-1.792 0-3.252-1.46-3.252-3.252s1.46-3.252 3.252-3.252zM3.786 27.134l-1.659 1.56 0.066-2.257 3.385-7.5c0.498 0.332 0.996 0.597 1.527 0.83l-3.319 7.367zM11.884 19.003c-0.796 0-1.56-0.1-2.323-0.265l2.323-5.144 2.323 5.144c-0.763 0.166-1.527 0.265-2.323 0.265zM19.981 27.134l-3.319-7.334c0.531-0.232 1.029-0.531 1.527-0.83l3.385 7.467 0.066 2.257-1.659-1.56z"></path>
</symbol>
<symbol id="icon-ready-bg" viewBox="0 0 114 32">
<path fill="#000" style="fill: var(--color3, #000)" d="M0 0h113.498v32h-113.498v-32z"></path>
<path fill="#45529c" style="fill: var(--color18, #45529c)" opacity="0.95" d="M0 0h113.498v32h-113.498v-32z"></path>
</symbol>
<symbol id="icon-slide-left" viewBox="0 0 33 32">
<path fill="#fff" style="fill: var(--color5, #fff)" d="M16.4 0c8.837 0 16 7.163 16 16s-7.163 16-16 16c-8.837 0-16-7.163-16-16s7.163-16 16-16z"></path>
<path fill="none" stroke="#64be97" style="stroke: var(--color13, #64be97)" stroke-linejoin="round" stroke-linecap="round" stroke-miterlimit="4" stroke-width="1.6" d="M18.8 20.8l-4.8-4.8 4.8-4.8"></path>
</symbol>
<symbol id="icon-slide-right" viewBox="0 0 33 32">
<path fill="#fff" style="fill: var(--color5, #fff)" d="M16.4 0c8.837 0 16 7.163 16 16s-7.163 16-16 16c-8.837 0-16-7.163-16-16s7.163-16 16-16z"></path>
<path fill="none" stroke="#64be97" style="stroke: var(--color13, #64be97)" stroke-linejoin="round" stroke-linecap="round" stroke-miterlimit="4" stroke-width="1.6" d="M14 20.8l4.8-4.8-4.8-4.8"></path>
</symbol>
<symbol id="icon-slider-img1" viewBox="0 0 24 32">
<path fill="#000" style="fill: var(--color3, #000)" d="M0.747 0h22.33c0.388 0 0.703 0.315 0.703 0.703v30.593c0 0.388-0.315 0.703-0.703 0.703h-22.33c-0.388 0-0.703-0.315-0.703-0.703v-30.593c0-0.388 0.315-0.703 0.703-0.703z"></path>
<path fill="#000" style="fill: var(--color3, #000)" opacity="0.2" d="M0.747 0h22.33c0.388 0 0.703 0.315 0.703 0.703v30.593c0 0.388-0.315 0.703-0.703 0.703h-22.33c-0.388 0-0.703-0.315-0.703-0.703v-30.593c0-0.388 0.315-0.703 0.703-0.703z"></path>
</symbol>
<symbol id="icon-slider-img1-small" viewBox="0 0 33 32">
<path d="M32.333 16c0 8.837-7.163 16-16 16s-16-7.163-16-16c0-8.837 7.163-16 16-16s16 7.163 16 16z"></path>
</symbol>
<symbol id="icon-slider-img2" viewBox="0 0 24 32">
<path fill="#000" style="fill: var(--color3, #000)" d="M0.747 0h22.33c0.388 0 0.703 0.315 0.703 0.703v30.593c0 0.388-0.315 0.703-0.703 0.703h-22.33c-0.388 0-0.703-0.315-0.703-0.703v-30.593c0-0.388 0.315-0.703 0.703-0.703z"></path>
<path fill="#000" style="fill: var(--color3, #000)" opacity="0.2" d="M0.747 0h22.33c0.388 0 0.703 0.315 0.703 0.703v30.593c0 0.388-0.315 0.703-0.703 0.703h-22.33c-0.388 0-0.703-0.315-0.703-0.703v-30.593c0-0.388 0.315-0.703 0.703-0.703z"></path>
</symbol>
<symbol id="icon-slider-img2-small" viewBox="0 0 33 32">
<path d="M32.333 16c0 8.837-7.163 16-16 16s-16-7.163-16-16c0-8.837 7.163-16 16-16s16 7.163 16 16z"></path>
</symbol>
<symbol id="icon-slider-img3" viewBox="0 0 24 32">
<path fill="#000" style="fill: var(--color3, #000)" d="M0.747 0h22.33c0.388 0 0.703 0.315 0.703 0.703v30.593c0 0.388-0.315 0.703-0.703 0.703h-22.33c-0.388 0-0.703-0.315-0.703-0.703v-30.593c0-0.388 0.315-0.703 0.703-0.703z"></path>
<path fill="#000" style="fill: var(--color3, #000)" opacity="0.2" d="M0.747 0h22.33c0.388 0 0.703 0.315 0.703 0.703v30.593c0 0.388-0.315 0.703-0.703 0.703h-22.33c-0.388 0-0.703-0.315-0.703-0.703v-30.593c0-0.388 0.315-0.703 0.703-0.703z"></path>
</symbol>
<symbol id="icon-slider-img3-small" viewBox="0 0 32 32">
<path d="M16 0c8.837 0 16 7.163 16 16s-7.163 16-16 16c-8.837 0-16-7.163-16-16s7.163-16 16-16z"></path>
</symbol>
<symbol id="icon-star" viewBox="0 0 29 32">
<path fill="#fdd22f" style="fill: var(--color19, #fdd22f)" d="M24.010 28.754c0.21 1.318-1.19 2.298-2.357 1.651l-6.274-3.483c-0.483-0.268-1.070-0.268-1.553 0l-6.274 3.483c-1.166 0.648-2.567-0.333-2.357-1.651l1.179-7.402c0.080-0.501-0.083-1.010-0.437-1.372l-5.35-5.458c-0.913-0.932-0.388-2.505 0.902-2.702l7.196-1.095c0.533-0.081 0.989-0.425 1.214-0.915l3.046-6.641c0.571-1.244 2.338-1.244 2.909 0l3.046 6.641c0.225 0.49 0.681 0.834 1.214 0.915l7.292 1.11c1.271 0.193 1.806 1.731 0.93 2.672l-5.1 5.477c-0.336 0.36-0.487 0.856-0.409 1.342l1.183 7.427z"></path>
</symbol>
<symbol id="icon-three" viewBox="0 0 32 32">
<path fill="#fff" style="fill: var(--color5, #fff)" d="M16 5.333c4.909 0 8.889 3.98 8.889 8.889s-3.98 8.889-8.889 8.889c-4.909 0-8.889-3.98-8.889-8.889s3.98-8.889 8.889-8.889z"></path>
<path fill="#1b63f0" style="fill: var(--color4, #1b63f0)" d="M16.363 13.966c0.46 0.057 0.811 0.213 1.052 0.469s0.363 0.576 0.363 0.96c0 0.289-0.073 0.552-0.22 0.789s-0.37 0.427-0.668 0.569c-0.294 0.137-0.654 0.206-1.081 0.206-0.355 0-0.699-0.050-1.031-0.149-0.327-0.104-0.607-0.247-0.839-0.427l0.398-0.718c0.18 0.152 0.398 0.273 0.654 0.363 0.261 0.085 0.529 0.128 0.804 0.128 0.327 0 0.583-0.066 0.768-0.199 0.19-0.137 0.284-0.322 0.284-0.555s-0.090-0.412-0.27-0.54c-0.175-0.133-0.446-0.199-0.811-0.199h-0.455v-0.633l1.131-1.344h-2.261v-0.775h3.392v0.619l-1.209 1.436z"></path>
<path fill="none" stroke="#64be97" style="stroke: var(--color13, #64be97)" stroke-linejoin="miter" stroke-linecap="butt" stroke-miterlimit="4" stroke-width="0.4444" d="M16 5.556c4.786 0 8.667 3.88 8.667 8.667s-3.88 8.667-8.667 8.667c-4.786 0-8.667-3.88-8.667-8.667s3.88-8.667 8.667-8.667z"></path>
</symbol>
<symbol id="icon-twitter" viewBox="0 0 32 32">
<path stroke-linejoin="round" stroke-linecap="round" stroke-miterlimit="4" stroke-width="2.6667" d="M30.667 4c-1.277 0.901-2.691 1.589-4.187 2.040-0.803-0.923-1.87-1.578-3.057-1.875s-2.437-0.222-3.58 0.214c-1.143 0.436-2.125 1.213-2.812 2.226s-1.047 2.212-1.031 3.435v1.333c-2.343 0.061-4.665-0.459-6.759-1.513s-3.894-2.609-5.241-4.527c0 0-5.333 12 6.667 17.333-2.746 1.864-6.017 2.799-9.333 2.667 12 6.667 26.667 0 26.667-15.333-0.001-0.371-0.037-0.742-0.107-1.107 1.361-1.342 2.321-3.036 2.773-4.893z"></path>
</symbol>
<symbol id="icon-two" viewBox="0 0 32 32">
<path fill="#fff" style="fill: var(--color5, #fff)" d="M16 0c8.837 0 16 7.163 16 16s-7.163 16-16 16c-8.837 0-16-7.163-16-16s7.163-16 16-16z"></path>
<path fill="#5d74e4" style="fill: var(--color11, #5d74e4)" d="M19.328 19.392v1.408h-6.605v-1.114l3.558-3.379c0.401-0.384 0.67-0.717 0.806-0.998 0.145-0.29 0.218-0.576 0.218-0.858 0-0.418-0.141-0.738-0.422-0.96s-0.696-0.333-1.242-0.333c-0.913 0-1.613 0.311-2.099 0.934l-1.165-0.896c0.35-0.469 0.819-0.832 1.408-1.088 0.597-0.265 1.263-0.397 1.997-0.397 0.973 0 1.749 0.23 2.33 0.691s0.87 1.088 0.87 1.882c0 0.486-0.102 0.943-0.307 1.37s-0.597 0.913-1.178 1.459l-2.394 2.278h4.224z"></path>
</symbol>
<symbol id="icon-two-women-img" viewBox="0 0 33 32">
<path fill="#637af2" style="fill: var(--color20, #637af2)" d="M1.91 0h23.562c1.055 0 1.91 0.855 1.91 1.91v23.562c0 1.055-0.855 1.91-1.91 1.91h-23.562c-1.055 0-1.91-0.855-1.91-1.91v-23.562c0-1.055 0.855-1.91 1.91-1.91z"></path>
<path fill="#000" style="fill: var(--color3, #000)" d="M7.323 4.617h23.562c1.055 0 1.91 0.855 1.91 1.91v23.562c0 1.055-0.855 1.91-1.91 1.91h-23.562c-1.055 0-1.91-0.855-1.91-1.91v-23.562c0-1.055 0.855-1.91 1.91-1.91z"></path>
</symbol>
<symbol id="icon-union-main-logo" viewBox="0 0 72 32">
<path  d="M16 5.12c6.009 0 10.88 4.871 10.88 10.88 0 6.005-4.865 10.874-10.87 10.88-0.003 0-0.007 0-0.010 0h-0.004c-6.007-0.002-10.876-4.873-10.876-10.88 0-6.009 4.871-10.88 10.88-10.88zM27.731 26.88c2.649-2.855 4.269-6.678 4.269-10.88 0-8.837-7.163-16-16-16s-16 7.163-16 16c0 8.837 7.163 16 16 16 0.004 0 0.008 0 0.013 0h38.802c0.004 0 0.009 0 0.013 0 8.837 0 16-7.163 16-16s-7.163-16-16-16c-8.837 0-16 7.163-16 16 0 4.202 1.62 8.025 4.269 10.88h-15.365zM54.831 26.88h-0.014c-6.004-0.006-10.87-4.875-10.87-10.88 0-6.009 4.871-10.88 10.88-10.88s10.88 4.871 10.88 10.88c0 6.008-4.869 10.878-10.876 10.88z"></path>
</symbol>
<symbol id="icon-youtube" viewBox="0 0 32 32">
<path stroke-linejoin="round" stroke-linecap="round" stroke-miterlimit="4" stroke-width="2.6667" d="M30.053 8.56c-0.158-0.633-0.481-1.213-0.935-1.681s-1.024-0.808-1.651-0.986c-2.293-0.56-11.467-0.56-11.467-0.56s-9.173 0-11.467 0.613c-0.628 0.178-1.197 0.518-1.652 0.986s-0.777 1.048-0.935 1.681c-0.42 2.327-0.625 4.688-0.613 7.053-0.015 2.383 0.19 4.762 0.613 7.107 0.175 0.613 0.504 1.171 0.958 1.619s1.014 0.772 1.629 0.941c2.293 0.613 11.467 0.613 11.467 0.613s9.173 0 11.467-0.613c0.628-0.178 1.197-0.518 1.651-0.986s0.777-1.048 0.935-1.681c0.417-2.31 0.622-4.653 0.613-7 0.015-2.383-0.19-4.762-0.613-7.107v0z"></path>
<path stroke-linejoin="round" stroke-linecap="round" stroke-miterlimit="4" stroke-width="2.6667" d="M13 20.027l7.667-4.36-7.667-4.36v8.72z"></path>
</symbol>
</defs>
</svg>
