<svg width="72" height="72" viewBox="0 0 72 72" fill="none" xmlns="http://www.w3.org/2000/svg">
<g filter="url(#filter0_d_1233_614)">
<rect x="16" y="12" width="40" height="40" rx="20" fill="white"/>
<path d="M36.8158 31.424C37.8504 31.552 38.6398 31.904 39.1838 32.48C39.7278 33.056 39.9998 33.776 39.9998 34.64C39.9998 35.2907 39.8344 35.8827 39.5038 36.416C39.1731 36.9493 38.6718 37.376 37.9998 37.696C37.3384 38.0053 36.5278 38.16 35.5677 38.16C34.7678 38.16 33.9944 38.048 33.2478 37.824C32.5118 37.5893 31.8824 37.2693 31.3598 36.864L32.2558 35.248C32.6611 35.5893 33.1518 35.8613 33.7278 36.064C34.3144 36.256 34.9171 36.352 35.5358 36.352C36.2718 36.352 36.8478 36.2027 37.2638 35.904C37.6904 35.5947 37.9038 35.1787 37.9038 34.656C37.9038 34.1333 37.7011 33.728 37.2958 33.44C36.9011 33.1413 36.2931 32.992 35.4718 32.992H34.4478V31.568L36.9918 28.544H31.9038V26.8H39.5358V28.192L36.8158 31.424Z" fill="#1B63F0"/>
<rect x="16.5" y="12.5" width="39" height="39" rx="19.5" stroke="#64BE97"/>
</g>
<defs>
<filter id="filter0_d_1233_614" x="0" y="0" width="72" height="72" filterUnits="userSpaceOnUse" color-interpolation-filters="sRGB">
<feFlood flood-opacity="0" result="BackgroundImageFix"/>
<feColorMatrix in="SourceAlpha" type="matrix" values="0 0 0 0 0 0 0 0 0 0 0 0 0 0 0 0 0 0 127 0" result="hardAlpha"/>
<feOffset dy="4"/>
<feGaussianBlur stdDeviation="8"/>
<feComposite in2="hardAlpha" operator="out"/>
<feColorMatrix type="matrix" values="0 0 0 0 0.886275 0 0 0 0 0.929412 0 0 0 0 0.984314 0 0 0 1 0"/>
<feBlend mode="normal" in2="BackgroundImageFix" result="effect1_dropShadow_1233_614"/>
<feBlend mode="normal" in="SourceGraphic" in2="effect1_dropShadow_1233_614" result="shape"/>
</filter>
</defs>
</svg>
