<svg width="56" height="56" viewBox="0 0 56 56" fill="none" xmlns="http://www.w3.org/2000/svg">
<path d="M15.7636 4.56401H45.3316C46.1716 4.56401 46.8996 3.89201 46.8996 2.99601C46.8996 2.10001 46.1716 1.48401 45.3316 1.48401H15.7636C12.3476 1.48401 9.54761 4.00401 9.15561 7.30801C9.09961 7.42001 9.09961 7.58801 9.09961 7.75601V49.644C9.09961 52.332 11.2836 54.516 13.9716 54.516H44.2676C45.3876 54.516 46.3396 53.564 46.3396 52.444V13.86C46.3396 12.74 45.3876 11.788 44.2676 11.788H15.7636C13.8036 11.788 12.1236 10.108 12.1236 8.14801C12.1236 6.18801 13.8036 4.56401 15.7636 4.56401ZM15.7636 14.868H43.2596V51.436H13.9716C12.9636 51.436 12.1796 50.652 12.1796 49.644V13.804C13.1876 14.476 14.4196 14.868 15.7636 14.868Z" fill="#1B63F0"/>
<path d="M35.084 45.108H20.86C20.02 45.108 19.292 45.78 19.292 46.676C19.292 47.572 19.964 48.244 20.86 48.244H35.028C35.868 48.244 36.596 47.572 36.596 46.676C36.596 45.78 35.924 45.108 35.084 45.108Z" fill="#1B63F0"/>
<path d="M19.4032 24.7799H36.4832C37.0992 24.7799 37.6032 24.2759 37.6032 23.6599V20.2999C37.6032 19.6839 37.0992 19.1799 36.4832 19.1799H19.4032C18.7872 19.1799 18.2832 19.6839 18.2832 20.2999V23.6599C18.2832 24.2759 18.7872 24.7799 19.4032 24.7799Z" fill="#1B63F0"/>
</svg>
