<svg width="40" height="40" viewBox="0 0 40 40" fill="none" xmlns="http://www.w3.org/2000/svg">
<rect width="40" height="40" rx="20" fill="white"/>
<path d="M24.1597 24.24V26H15.9038V24.608L20.3518 20.384C20.8531 19.904 21.1891 19.488 21.3598 19.136C21.5411 18.7733 21.6318 18.416 21.6318 18.064C21.6318 17.5413 21.4558 17.1413 21.1038 16.864C20.7518 16.5867 20.2344 16.448 19.5518 16.448C18.4104 16.448 17.5358 16.8373 16.9278 17.616L15.4718 16.496C15.9091 15.9093 16.4958 15.456 17.2318 15.136C17.9784 14.8053 18.8104 14.64 19.7278 14.64C20.9438 14.64 21.9144 14.928 22.6398 15.504C23.3651 16.08 23.7278 16.864 23.7278 17.856C23.7278 18.464 23.5998 19.0347 23.3438 19.568C23.0878 20.1013 22.5971 20.7093 21.8718 21.392L18.8798 24.24H24.1597Z" fill="#5D74E4"/>
</svg>
